<?xml version="1.0" encoding="UTF-8" standalone="no"?>
<!-- Created with Inkscape (http://www.inkscape.org/) -->

<svg
   xmlns:dc="http://purl.org/dc/elements/1.1/"
   xmlns:cc="http://creativecommons.org/ns#"
   xmlns:rdf="http://www.w3.org/1999/02/22-rdf-syntax-ns#"
   xmlns:svg="http://www.w3.org/2000/svg"
   xmlns="http://www.w3.org/2000/svg"
   xmlns:sodipodi="http://sodipodi.sourceforge.net/DTD/sodipodi-0.dtd"
   xmlns:inkscape="http://www.inkscape.org/namespaces/inkscape"
   version="1.1"
   id="svg2"
   xml:space="preserve"
   width="1466.6667"
   height="1066.6667"
   viewBox="0 0 1466.6667 1066.6667"
   sodipodi:docname="43122.svg"
   inkscape:version="0.92.3 (2405546, 2018-03-11)"><metadata
     id="metadata8"><rdf:RDF><cc:Work
         rdf:about=""><dc:format>image/svg+xml</dc:format><dc:type
           rdf:resource="http://purl.org/dc/dcmitype/StillImage" /><dc:title></dc:title></cc:Work></rdf:RDF></metadata><defs
     id="defs6"><clipPath
       clipPathUnits="userSpaceOnUse"
       id="clipPath132"><path
         d="m 1048.37,5974.47 h 1129.55 v 123.242 H 1048.37 Z"
         id="path130"
         inkscape:connector-curvature="0" /></clipPath><clipPath
       clipPathUnits="userSpaceOnUse"
       id="clipPath150"><path
         d="m 1471.25,6583.77 h 150.012 v 153.031 H 1471.25 Z"
         id="path148"
         inkscape:connector-curvature="0" /></clipPath><clipPath
       clipPathUnits="userSpaceOnUse"
       id="clipPath172"><path
         d="M 1054.62,4313.99 H 2425.2 v 121.711 H 1054.62 Z"
         id="path170"
         inkscape:connector-curvature="0" /></clipPath><clipPath
       clipPathUnits="userSpaceOnUse"
       id="clipPath252"><path
         d="M 6144.38,2638.72 H 8126.24 V 5614.9 H 6144.38 Z"
         id="path250"
         inkscape:connector-curvature="0" /></clipPath><clipPath
       clipPathUnits="userSpaceOnUse"
       id="clipPath262"><path
         d="M 6144.38,2638.72 H 7377.45 V 4917.61 H 6144.38 Z"
         id="path260"
         inkscape:connector-curvature="0" /></clipPath><clipPath
       clipPathUnits="userSpaceOnUse"
       id="clipPath322"><path
         d="M 8795.35,3462.4 H 10153.9 V 5400.16 H 8795.35 Z"
         id="path320"
         inkscape:connector-curvature="0" /></clipPath><clipPath
       clipPathUnits="userSpaceOnUse"
       id="clipPath384"><path
         d="M 3427.41,1838.35 H 4443.77 V 2987.91 H 3427.41 Z"
         id="path382"
         inkscape:connector-curvature="0" /></clipPath><clipPath
       clipPathUnits="userSpaceOnUse"
       id="clipPath404"><path
         d="m 3268.8,3177.4 h 2298.16 v 152.082 H 3268.8 Z"
         id="path402"
         inkscape:connector-curvature="0" /></clipPath><clipPath
       clipPathUnits="userSpaceOnUse"
       id="clipPath448"><path
         d="M 4313.75,1823.29 H 4392 v 1409.23 h -78.25 z"
         id="path446"
         inkscape:connector-curvature="0" /></clipPath></defs><sodipodi:namedview
     pagecolor="#ffffff"
     bordercolor="#666666"
     borderopacity="1"
     objecttolerance="10"
     gridtolerance="10"
     guidetolerance="10"
     inkscape:pageopacity="0"
     inkscape:pageshadow="2"
     inkscape:window-width="1366"
     inkscape:window-height="713"
     id="namedview4"
     showgrid="false"
     inkscape:zoom="0.22124998"
     inkscape:cx="733.33337"
     inkscape:cy="533.33337"
     inkscape:window-x="0"
     inkscape:window-y="31"
     inkscape:window-maximized="1"
     inkscape:current-layer="g12" /><g
     id="g10"
     inkscape:groupmode="layer"
     inkscape:label="ink_ext_XXXXXX"
     transform="matrix(1.3333333,0,0,-1.3333333,0,1066.6667)"><g
       id="g12"
       transform="scale(0.1)"><path
         d="m 9101.63,800.969 c -59.68,0 -119.69,2.32 -180.37,7.98 -231.83,21.633 -466.83,32.453 -697.5,63.332 -529.41,70.867 -1059.06,75.059 -1592.33,75.059 -211.73,0 -423.46,1.98 -635.15,1.98 -308.22,0 -616.32,-4.191 -923.94,-24.781 -479.98,-32.117 -960.76,-37.23 -1441.61,-37.23 -72.43,0 -144.88,0.113 -217.31,0.273 -4.7,0.008 -9.38,0.008 -14.07,0.008 -266.17,0 -531.29,-16.399 -797.06,-27.981 -266.98,-11.64 -526.62,-30.75 -792.06,-30.75 -23.93,0 -47.92,0.161 -71.95,0.493 -265.22,3.648 -669.06,80.91 -858.268,277.848 -112.34,117.01 -97.11,398.51 15.39,511.32 49.153,49.29 128.388,87.9 193.108,111.37 184.37,66.91 372,67.06 564.65,68.46 2.35,0.02 4.68,0.02 7.03,0.02 132.96,0 271.2,-26.79 398.63,-64.02 115.92,-33.87 234.35,-45.75 352.25,-66.83 96.47,-17.26 199.68,-25.52 301.75,-25.52 66.43,0.01 132.4,3.51 195.67,10.31 171.18,18.38 343.58,26.93 515.26,41.42 35.92,3.03 71.73,6.66 107.44,10.7 19.94,-12.86 41.25,-23.91 62.52,-34.26 76.98,-37.48 159.36,-75.36 245.53,-109.29 31.97,-26.85 66.35,-50.82 102.64,-71.46 80.19,-45.56 184.61,-59.08 288.52,-59.08 80.4,0 160.49,8.09 228.81,15.72 147.84,16.47 292.54,60.62 424.39,129.49 84.87,44.31 161.36,96.58 149.58,198.4 -3.4,29.47 -10.02,57.24 -19.92,82.92 68.79,1.18 137.58,1.74 206.38,1.95 22.82,0.07 45.64,0.1 68.47,0.1 134.24,0 268.49,-1.01 402.67,-1.01 109.1,0 218.14,0.33 327.18,0.33 373.17,0 746.02,-3.83 1118.18,-37.67 115.33,-10.49 229.91,-4.15 343.63,-29.11 114.17,-25.04 229.42,-47.9 346.4,-52.37 57.8,-2.2 115.67,-3.56 173.63,-4.31 0.44,-0.18 0.89,-0.37 1.33,-0.55 0.13,0.17 0.26,0.36 0.39,0.53 41.89,-0.53 83.83,-0.75 125.78,-0.75 178.69,0 357.72,3.98 535.8,4.62 17.86,0.07 42.71,0.18 73.56,0.18 43.01,0 97.49,-0.22 160.42,-1.06 6.96,-60.62 16.6,-120.94 29.9,-180.78 69.27,-0.41 138.56,-0.83 207.83,-1.24 14.32,58.36 29.38,116.55 45.2,174.53 554.47,-22.38 1319.79,-102 1244.89,-380.47 -38.3,-142.45 -260.9,-327.85 -385.8,-387.52 -157.74,-75.391 -330.25,-120 -503.9,-135.02 -146.36,-12.68 -289.05,-26.281 -433.57,-26.281"
         style="fill:#f7e2e7;fill-opacity:1;fill-rule:nonzero;stroke:none"
         id="path16"
         inkscape:connector-curvature="0" /><path
         d="m 1119.02,4750.92 c 23.5,14 59.82,17.97 88.64,33.51 14.53,7.85 13.97,41.18 44.64,25.84 11.33,-5.66 30.54,-22.18 52.21,-32.7 31.6,-15.36 78.29,-18.38 118.44,-13.2 157.75,20.4 316.05,37.85 475.92,39.85 9.11,0.12 18.14,-0.06 26.2,4.63 14.45,8.39 17.63,23.84 22.45,38.85 22.34,69.6 46.62,137.6 81.92,202.06 31.51,57.51 67.54,111.75 121.76,149.61 54.22,37.87 122.76,53.21 183.08,27.91 45.19,-18.95 80.91,-54.76 86.31,-104.07 13.38,-122.29 -104.95,-202.5 -178.54,-280.92 -69.63,-74.2 -129.13,-137.11 -201.11,-204.43 -8.89,-8.32 -17.34,-16.06 -29.14,-20.21 -11.8,-4.13 -24.95,-3.27 -37.27,-2.03 -158.55,16.06 -312.68,35.79 -470.93,17.23 -43.48,-5.11 -81.67,7.36 -123.07,-2.75 -26.42,-6.46 -42.05,-30.72 -66.72,-40.81 -24.66,-10.11 -53.61,-20.02 -80.19,-19.48 -58.56,1.21 -120.5,55.86 -135.16,113.48 -9.56,37.59 1.12,56.05 20.56,67.63"
         style="fill:#efbfa5;fill-opacity:1;fill-rule:nonzero;stroke:none"
         id="path18"
         inkscape:connector-curvature="0" /><path
         d="m 2244.09,4886.25 c -86.42,41.7 -178.33,70.62 -261.88,119.25 38.29,73.1 156.85,373.74 175.83,409.32 72.47,135.79 89.44,195.54 178.75,262.74 190.72,143.51 391.31,19.57 362.83,-205.42 -30.91,-244.27 -180.74,-443.08 -339.66,-620.12 -3.46,-3.85 -7.94,-6.69 -13.51,-8.23 -5.57,-1.55 -13.64,1.21 -19.91,4.35 -26.85,13.41 -55.16,24.95 -82.45,38.11"
         style="fill:#353a85;fill-opacity:1;fill-rule:nonzero;stroke:none"
         id="path20"
         inkscape:connector-curvature="0" /><path
         d="m 2187.96,1490.76 c -31.41,-1.06 -61.58,5.98 -92.41,8.83 -15.93,305.73 12.97,626.16 25.5,933.35 78.54,-4.19 157.08,-8.38 235.62,-12.57 -54.69,-164.18 -93.74,-333.55 -116.56,-505.08 -3.63,-27.18 -47.67,-424.38 -52.15,-424.53"
         style="fill:#efbfa5;fill-opacity:1;fill-rule:nonzero;stroke:none"
         id="path22"
         inkscape:connector-curvature="0" /><path
         d="m 2086.04,1558.9 c -19.39,3.44 -30.83,-5.18 -43.75,-16.99 -7.5,-6.85 -12.61,-16.57 -21.66,-21.47 -9.05,-4.91 -17.94,-5.88 -28.7,-6.95 -56.66,-5.7 -187.19,-3.33 -117.65,-98.1 63.15,-86.05 230.87,-51.8 327.76,-28.43 6.37,1.55 13.1,2.5 17.77,7.43 4.67,4.95 7.82,11.96 9.8,19.23 11.06,40.51 26.18,91.07 -23.61,108.04 -21.24,7.23 -40.79,-6.84 -63.29,0.96 -18.41,6.38 -37.29,32.82 -56.67,36.28"
         style="fill:#292949;fill-opacity:1;fill-rule:nonzero;stroke:none"
         id="path24"
         inkscape:connector-curvature="0" /><path
         d="m 1944.95,2248.55 c 160.17,3.09 320.34,6.21 480.51,9.31 129.57,616.81 243.67,1236.87 342.17,1859.39 7.63,48.26 15.07,98.45 1.15,145.3 -26.29,88.59 -121.19,139.16 -212.04,156.12 -141.18,26.39 -400.58,-10.34 -472.99,-157.14 -76.51,-155.12 -63.67,-432.19 -82.22,-603.62 -50.64,-467.8 -69.61,-939.01 -56.58,-1409.36"
         style="fill:#292949;fill-opacity:1;fill-rule:nonzero;stroke:none"
         id="path26"
         inkscape:connector-curvature="0" /><path
         d="m 3103.94,1490.76 c 31.4,-1.06 61.57,5.98 92.41,8.83 15.92,305.73 -12.98,626.16 -25.51,933.35 -78.55,-4.19 -157.08,-8.38 -235.63,-12.57 54.7,-164.18 93.75,-333.55 116.58,-505.08 3.62,-27.18 47.67,-424.38 52.15,-424.53"
         style="fill:#efbfa5;fill-opacity:1;fill-rule:nonzero;stroke:none"
         id="path28"
         inkscape:connector-curvature="0" /><path
         d="m 3205.85,1558.9 c 19.39,3.44 30.83,-5.18 43.76,-16.99 7.5,-6.85 12.6,-16.57 21.65,-21.47 9.06,-4.91 17.94,-5.88 28.7,-6.95 56.66,-5.7 187.19,-3.33 117.65,-98.1 -63.15,-86.05 -230.87,-51.8 -327.76,-28.43 -6.37,1.55 -13.1,2.5 -17.77,7.43 -4.67,4.95 -7.82,11.96 -9.8,19.23 -11.06,40.51 -26.17,91.07 23.61,108.04 21.24,7.23 40.8,-6.84 63.28,0.96 18.42,6.38 37.3,32.82 56.68,36.28"
         style="fill:#292949;fill-opacity:1;fill-rule:nonzero;stroke:none"
         id="path30"
         inkscape:connector-curvature="0" /><path
         d="m 3346.94,2248.55 c -160.16,3.09 -320.34,6.21 -480.51,9.31 -129.57,616.81 -243.67,1236.87 -342.17,1859.39 -7.63,48.26 -15.06,98.45 -1.16,145.3 26.31,88.59 121.2,139.16 212.05,156.12 141.19,26.39 400.58,-10.34 472.98,-157.14 76.53,-155.12 63.68,-432.19 82.23,-603.62 50.64,-467.8 69.61,-939.01 56.58,-1409.36"
         style="fill:#292949;fill-opacity:1;fill-rule:nonzero;stroke:none"
         id="path32"
         inkscape:connector-curvature="0" /><path
         d="m 2936.24,5630.78 c 128.4,-122.21 224.6,-279.21 282.53,-441.83 102.6,-287.97 104.57,-595.46 105.52,-896.75 0.31,-100.29 0.62,-200.57 0.94,-300.84 0.31,-98.67 -8.42,-119.91 -115.64,-106.9 -198.7,24.1 -405.26,65.07 -585.3,153.37 -85.67,42.01 -165.74,95.08 -255.57,128.17 -130.65,48.12 -264.61,26.33 -393.88,57.65 56.12,169.63 96.28,314.13 125.08,488.91 29.66,179.98 56.62,376.28 100.08,553.83 26.08,106.54 74.59,206.07 123.91,304.05 33.17,65.85 68.27,133.24 124.59,180.84 169.63,143.37 359.81,1.26 487.74,-120.5"
         style="fill:#353a85;fill-opacity:1;fill-rule:nonzero;stroke:none"
         id="path34"
         inkscape:connector-curvature="0" /><path
         d="m 2472.91,6053.24 c 24.24,-53.01 63.88,-97.19 96.24,-145.67 31.48,-47.18 42.79,-89.86 51.14,-144.55 6.03,-39.5 20.15,-70.38 67.74,-77.15 89.75,-12.75 64.08,61.41 84.47,115.35 23.3,61.66 72.99,110.38 107.72,165.42 100.35,159.03 71.7,473.37 -136.86,540.46 -228.05,73.34 -344.05,-293 -270.45,-453.86"
         style="fill:#efbfa5;fill-opacity:1;fill-rule:nonzero;stroke:none"
         id="path36"
         inkscape:connector-curvature="0" /><path
         d="m 2836.43,6207.15 c 25.89,-1.05 54.37,-3.1 73.57,-20.49 19.2,-17.38 17.11,-55.31 -8.23,-59.41 -22.98,-3.71 -52.74,20.26 -66.77,2.76 -8.2,-10.22 -1,-25.2 5.22,-37.16 23.89,-45.91 31.04,-99.14 19.89,-148.04 9.46,-8.76 24.2,0.35 32.51,9.46 41.23,45.29 73.44,98.19 94.54,155.26 8.28,-13.82 20.43,-25.57 34.75,-33.64 -8.59,21.45 -3.16,44.93 2.15,66.82 19.49,80.45 32.75,174.7 -23.43,240.44 -30.06,35.18 -75.77,55.41 -121.74,63.92 -45.97,8.51 -92.82,6.44 -139.15,4.35 -19.82,-0.9 -44.24,-5.18 -49,-23.51 43.47,-17.43 88.45,-51.39 110.21,-92.55 6.68,-12.65 32.84,-128.11 35.48,-128.21"
         style="fill:#292949;fill-opacity:1;fill-rule:nonzero;stroke:none"
         id="path38"
         inkscape:connector-curvature="0" /><path
         d="m 2744.56,6400.44 c 1.59,-1.15 3.15,-2.31 4.67,-3.48 19.71,-14.99 38.18,-33.24 62.02,-39.89 34.38,-9.59 71.3,6.98 105.14,-4.73 37.83,-13.08 62.69,-58.31 90.3,-85.08 45.28,-43.9 101.42,-76.18 161.68,-94.52 30.78,-9.37 62.67,-15.12 94.79,-16.93 14.57,-0.83 34.05,-3.59 48.25,0.23 19.05,5.14 18.4,13.79 -1.9,20.3 -63.67,20.41 -83.63,109.83 -78.82,169.11 3.8,46.8 19.94,95.69 2.09,139.12 -13.63,33.16 -42.91,50.29 -71.2,69.27 -31.21,20.93 -65.05,15.28 -100.49,25.35 -36.96,10.51 -67.08,39.61 -104.79,47.04 -39.83,7.83 -79.63,-9.81 -119.48,-17.55 -32.92,-6.4 -67.15,-5.98 -99.9,1.22 -29.36,6.47 -57.99,18.34 -88.04,18.07 -44.32,-0.41 -85.08,-28.08 -110.93,-64.06 -36.58,-50.91 -60.23,-138.02 -47.34,-205.05 -2,10.4 33,48.08 40.21,56.2 15.19,17.1 33.54,33.13 56.73,35.91 52.53,6.25 114.78,-19.88 157.01,-50.53"
         style="fill:#292949;fill-opacity:1;fill-rule:nonzero;stroke:none"
         id="path40"
         inkscape:connector-curvature="0" /><path
         d="m 998.754,4338.98 c 0,0 49.026,-232.93 16.286,-338.34 l 89.14,-0.68 -28.77,374.47 -76.656,-35.45"
         style="fill:#babcbe;fill-opacity:1;fill-rule:nonzero;stroke:none"
         id="path42"
         inkscape:connector-curvature="0" /><path
         d="m 1099.93,4040.7 c -24.96,-3.95 -50.03,-6.8 -75.24,-8.54 -4.05,-0.29 -3.29,-6.92 0.75,-6.64 25.21,1.76 50.27,4.6 75.24,8.54 3.99,0.65 3.26,7.28 -0.75,6.64"
         style="fill:#babcbe;fill-opacity:1;fill-rule:nonzero;stroke:none"
         id="path44"
         inkscape:connector-curvature="0" /><path
         d="m 1095.92,4075.92 c -21.44,-2.92 -42.73,-5.83 -67.16,-9.16 -4.01,-0.55 -3.28,-7.19 0.76,-6.63 22.37,3.05 44.76,6.1 67.15,9.16 4.01,0.54 3.28,7.17 -0.76,6.63"
         style="fill:#babcbe;fill-opacity:1;fill-rule:nonzero;stroke:none"
         id="path46"
         inkscape:connector-curvature="0" /><path
         d="m 1092.49,4106.26 c -16.54,-4.94 -26.72,-7.87 -64.22,-7.47 -4.06,0.04 -3.28,-6.68 0.75,-6.64 21.7,0.23 43.04,2.71 64.21,7.48 3.93,0.88 3.22,7.53 -0.74,6.63"
         style="fill:#babcbe;fill-opacity:1;fill-rule:nonzero;stroke:none"
         id="path48"
         inkscape:connector-curvature="0" /><path
         d="m 1094.11,4149.06 c -21.6,-5.2 -43.38,-8.94 -65.46,-11.25 -4.04,-0.42 -3.28,-7.05 0.74,-6.63 22.08,2.3 43.87,6.05 65.47,11.25 3.89,0.95 3.2,7.58 -0.75,6.63"
         style="fill:#babcbe;fill-opacity:1;fill-rule:nonzero;stroke:none"
         id="path50"
         inkscape:connector-curvature="0" /><path
         d="m 1088.14,4187.01 c -21.32,-3.21 -42.71,-5.77 -64.18,-7.68 -4.04,-0.37 -3.3,-7 0.75,-6.63 21.48,1.92 42.86,4.48 64.19,7.67 3.99,0.61 3.26,7.25 -0.76,6.64"
         style="fill:#babcbe;fill-opacity:1;fill-rule:nonzero;stroke:none"
         id="path52"
         inkscape:connector-curvature="0" /><path
         d="m 1082.21,4224.82 c -20.67,-3.88 -41.44,-6.96 -62.35,-9.25 -4.03,-0.44 -3.29,-7.07 0.75,-6.63 20.9,2.28 41.68,5.37 62.36,9.25 3.96,0.76 3.24,7.39 -0.76,6.63"
         style="fill:#babcbe;fill-opacity:1;fill-rule:nonzero;stroke:none"
         id="path54"
         inkscape:connector-curvature="0" /><path
         d="m 1078.92,4267.99 c -22.14,-4.75 -44.41,-8.55 -66.86,-11.45 l -1.58,-0.74 0.11,-0.79 c 0.45,-1.62 0.81,-3.26 1.15,-4.91 l 1.06,-0.18 c 22.45,2.88 44.73,6.7 66.87,11.43 3.93,0.84 3.22,7.49 -0.75,6.64"
         style="fill:#babcbe;fill-opacity:1;fill-rule:nonzero;stroke:none"
         id="path56"
         inkscape:connector-curvature="0" /><path
         d="m 1077.26,4311.02 c -21.84,-3.18 -43.67,-6.35 -65.51,-9.53 -4.01,-0.57 -3.28,-7.21 0.75,-6.63 21.84,3.18 43.67,6.35 65.51,9.51 4.01,0.59 3.27,7.22 -0.75,6.65"
         style="fill:#babcbe;fill-opacity:1;fill-rule:nonzero;stroke:none"
         id="path58"
         inkscape:connector-curvature="0" /><path
         d="M 2570.17,3643.23 977.512,3509.75 c -2.032,-0.17 -3.828,1.37 -4.004,3.46 l -22.57,265.98 c -0.176,2.08 1.335,3.91 3.375,4.07 l 1592.657,133.5 c 2.03,0.16 3.83,-1.38 4.01,-3.47 l 22.56,-265.98 c 0.18,-2.08 -1.33,-3.9 -3.37,-4.08"
         style="fill:#d67086;fill-opacity:1;fill-rule:nonzero;stroke:none"
         id="path60"
         inkscape:connector-curvature="0" /><path
         d="m 1258.05,3533.23 -167.41,-14.02 -23.2,273.56 167.4,14.04 23.21,-273.58"
         style="fill:#292949;fill-opacity:1;fill-rule:nonzero;stroke:none"
         id="path62"
         inkscape:connector-curvature="0" /><path
         d="m 1333.9,3539.59 -37.23,-3.12 -23.2,273.57 37.22,3.12 23.21,-273.57"
         style="fill:#292949;fill-opacity:1;fill-rule:nonzero;stroke:none"
         id="path64"
         inkscape:connector-curvature="0" /><path
         d="m 1463.74,3688.23 c 2.27,-26.77 -17.15,-50.23 -43.37,-52.44 -26.23,-2.2 -49.33,17.72 -51.6,44.48 -2.27,26.76 17.15,50.24 43.37,52.44 26.23,2.2 49.33,-17.71 51.6,-44.48"
         style="fill:#292949;fill-opacity:1;fill-rule:nonzero;stroke:none"
         id="path66"
         inkscape:connector-curvature="0" /><path
         d="M 2560.33,3914.85 967.668,3781.37 c -2.031,-0.17 -3.828,1.37 -4.008,3.45 l -18.078,213.1 c -0.176,2.07 1.332,3.91 3.371,4.07 l 1592.667,133.49 c 2.03,0.16 3.82,-1.38 4,-3.46 l 18.08,-213.08 c 0.18,-2.08 -1.34,-3.91 -3.37,-4.09"
         style="fill:#5d66d3;fill-opacity:1;fill-rule:nonzero;stroke:none"
         id="path68"
         inkscape:connector-curvature="0" /><path
         d="m 1154.04,3956.24 8.11,-95.63 46.73,46.81 z"
         style="fill:#eed5d5;fill-opacity:1;fill-rule:nonzero;stroke:none"
         id="path70"
         inkscape:connector-curvature="0" /><path
         d="m 1218.85,3952.39 6.55,-77.2 37.73,37.8 z"
         style="fill:#eed5d5;fill-opacity:1;fill-rule:nonzero;stroke:none"
         id="path72"
         inkscape:connector-curvature="0" /><path
         d="m 1057.64,3788.91 -7.24,-0.61 -18.73,220.63 7.26,0.6 18.71,-220.62"
         style="fill:#eed5d5;fill-opacity:1;fill-rule:nonzero;stroke:none"
         id="path74"
         inkscape:connector-curvature="0" /><path
         d="m 1091.65,3791.76 -7.25,-0.61 -18.71,220.63 7.24,0.6 18.72,-220.62"
         style="fill:#eed5d5;fill-opacity:1;fill-rule:nonzero;stroke:none"
         id="path76"
         inkscape:connector-curvature="0" /><path
         d="m 1366.39,6464.64 -113.41,-41.98 1.53,27.25 c 4.6,82.06 -9.65,180.94 -33.47,259.84 l 4.68,4.94 104.01,89.78 36.66,-339.83"
         style="fill:#eed5d5;fill-opacity:1;fill-rule:nonzero;stroke:none"
         id="path78"
         inkscape:connector-curvature="0" /><path
         d="m 2014.56,6508.56 -657.92,-29.04 -106.44,-55.69 712.53,29.86 51.83,54.87"
         style="fill:#9eb79c;fill-opacity:1;fill-rule:nonzero;stroke:none"
         id="path80"
         inkscape:connector-curvature="0" /><path
         d="m 1248.32,6431.14 c 19.13,5.15 37.21,17.82 55.34,27.84 16.99,9.43 33.95,18.82 50.88,28.2 2.69,1.49 4.78,-7.37 2.09,-8.86 -18.29,-10.14 -36.6,-20.29 -54.96,-30.48 -17.19,-9.54 -34.25,-21.11 -52.4,-26.01 -2.85,-0.78 -3.78,8.55 -0.95,9.31"
         style="fill:#b0c0ba;fill-opacity:1;fill-rule:nonzero;stroke:none"
         id="path82"
         inkscape:connector-curvature="0" /><path
         d="m 1329.85,6792.05 c -38.09,-24.84 -74.93,-55.32 -110.27,-91.54 -3.66,-3.75 -8.41,8.27 -4.72,12.06 35.87,36.73 73.17,67.81 111.83,93 3.98,2.59 7.13,-10.92 3.16,-13.52"
         style="fill:#b0c0ba;fill-opacity:1;fill-rule:nonzero;stroke:none"
         id="path84"
         inkscape:connector-curvature="0" /><path
         d="m 1987.21,6830.04 -662.89,-25.78 10.29,-72.97 c 8.32,-59.03 14.31,-118.31 17.91,-177.29 l 4.12,-74.48 657.92,29.04 0.23,4.41 c 5.55,103.78 -4.01,214.04 -27.58,317.07"
         style="fill:#8cabef;fill-opacity:1;fill-rule:nonzero;stroke:none"
         id="path86"
         inkscape:connector-curvature="0" /><path
         d="m 1424.5,6800.73 c -1.94,9.27 -16.38,7.61 -14.43,-1.75 20.39,-97.73 27.65,-197.16 21.36,-296.78 -0.6,-9.48 13.78,-11.75 14.39,-2.23 6.38,100.89 -0.66,201.75 -21.32,300.76"
         style="fill:#5d66d3;fill-opacity:1;fill-rule:nonzero;stroke:none"
         id="path88"
         inkscape:connector-curvature="0" /><path
         d="m 1908.23,6815.95 c -2.02,9.26 -16.45,7.47 -14.42,-1.88 21.23,-97.55 29.35,-196.92 23.92,-296.59 -0.52,-9.47 13.88,-11.63 14.41,-2.11 5.5,100.95 -2.4,201.75 -23.91,300.58"
         style="fill:#5d66d3;fill-opacity:1;fill-rule:nonzero;stroke:none"
         id="path90"
         inkscape:connector-curvature="0" /><path
         d="m 1050.24,6027.27 -254.42,-64.88 5.414,36.83 c 16.278,110.87 -7.972,243.03 -54.89,347.56 l 10.726,7 237.149,128.57 56.021,-455.08"
         style="fill:#efbfa5;fill-opacity:1;fill-rule:nonzero;stroke:none"
         id="path92"
         inkscape:connector-curvature="0" /><path
         d="m 2489.76,6133.96 -1460.03,-87.36 -239.996,-82.84 1581.096,92.48 118.93,77.72"
         style="fill:#292949;fill-opacity:1;fill-rule:nonzero;stroke:none"
         id="path94"
         inkscape:connector-curvature="0" /><path
         d="m 786.113,5973.48 c 42.774,8.34 83.789,26.72 124.684,41.57 38.359,13.93 76.644,27.83 114.853,41.72 6.06,2.19 10.03,-9.59 3.96,-11.8 -41.251,-15 -82.598,-30.03 -124.028,-45.09 -38.801,-14.1 -77.477,-30.96 -118.059,-38.88 -6.375,-1.24 -7.742,11.24 -1.41,12.48"
         style="fill:#353a85;fill-opacity:1;fill-rule:nonzero;stroke:none"
         id="path96"
         inkscape:connector-curvature="0" /><path
         d="m 993.559,6465.63 c -86.239,-36.26 -170.121,-80.03 -251.133,-131.4 -8.387,-5.32 -18.028,10.54 -9.559,15.9 82.215,52.1 167.16,96.71 254.696,133.47 9.015,3.79 14.987,-14.2 5.996,-17.97"
         style="fill:#353a85;fill-opacity:1;fill-rule:nonzero;stroke:none"
         id="path98"
         inkscape:connector-curvature="0" /><path
         d="m 2453.02,6565.01 -1470.801,-83.34 17.386,-97.55 c 14.045,-78.9 22.915,-158.32 26.515,-237.51 l 3.61,-100.01 1460.03,87.36 0.85,5.96 c 19.98,140.19 6.98,288.03 -37.59,425.09"
         style="fill:#3b3387;fill-opacity:1;fill-rule:nonzero;stroke:none"
         id="path100"
         inkscape:connector-curvature="0" /><path
         d="m 2429.89,4128.49 -1347.75,-112.96 -27.45,323.65 1347.75,112.96 1.67,-4.33 c 39.47,-101.61 48.44,-212.77 25.78,-319.32"
         style="fill:#dddae8;fill-opacity:1;fill-rule:nonzero;stroke:none"
         id="path102"
         inkscape:connector-curvature="0" /><path
         d="m 1408.28,4042.86 -188.31,-15.78 -27.45,323.65 188.31,15.78 27.45,-323.65"
         style="fill:#353a85;fill-opacity:1;fill-rule:nonzero;stroke:none"
         id="path104"
         inkscape:connector-curvature="0" /><path
         d="m 1030.31,4682.07 -253.165,15.85 11.507,-27.8 c 34.586,-83.56 34.555,-188.6 8.485,-274.79 l 11.285,-4.01 246.198,-69.1 -24.31,359.85"
         style="fill:#efbfa5;fill-opacity:1;fill-rule:nonzero;stroke:none"
         id="path106"
         inkscape:connector-curvature="0" /><path
         d="m 2490.71,4799.96 -1476.72,-135.75 -242.353,31.82 1582.393,149.9 136.68,-45.97"
         style="fill:#292949;fill-opacity:1;fill-rule:nonzero;stroke:none"
         id="path108"
         inkscape:connector-curvature="0" /><path
         d="m 769.91,4688.01 c 41.844,-0.67 83.86,-9.37 125.235,-15.36 38.898,-5.63 77.804,-11.26 116.705,-16.9 6.16,-0.9 7.94,8.81 1.75,9.72 -42.002,6.08 -84.022,12.17 -126.026,18.25 -39.261,5.68 -78.789,13.52 -118.492,14.15 -6.238,0.1 -5.355,-9.76 0.828,-9.86"
         style="fill:#353a85;fill-opacity:1;fill-rule:nonzero;stroke:none"
         id="path110"
         inkscape:connector-curvature="0" /><path
         d="m 1051.15,4335 c -88.08,17.14 -174.826,40.25 -259.841,69.45 -8.789,3.01 -15.102,-10.34 -6.231,-13.38 86.231,-29.62 174.086,-53.27 263.432,-70.64 9.21,-1.8 11.84,12.78 2.64,14.57"
         style="fill:#353a85;fill-opacity:1;fill-rule:nonzero;stroke:none"
         id="path112"
         inkscape:connector-curvature="0" /><path
         d="m 2520.82,4445.11 -1477.73,-123.86 -0.08,77.33 c -0.07,62.75 -5.18,125.39 -15.29,187.33 l -13.73,78.3 1476.72,135.75 1.84,-4.73 c 43.28,-111.41 53.11,-233.3 28.27,-350.12"
         style="fill:#474ebb;fill-opacity:1;fill-rule:nonzero;stroke:none"
         id="path114"
         inkscape:connector-curvature="0" /><path
         d="M 2346.03,4810.56 945.59,4693.18 c -2.031,-0.17 -3.828,1.38 -4.004,3.46 l -27.816,327.85 c -0.176,2.08 1.335,3.91 3.375,4.07 l 1400.435,117.39 c 2.03,0.16 3.83,-1.39 4,-3.46 l 27.81,-327.86 c 0.18,-2.07 -1.33,-3.9 -3.36,-4.07"
         style="fill:#8cabef;fill-opacity:1;fill-rule:nonzero;stroke:none"
         id="path116"
         inkscape:connector-curvature="0" /><path
         d="M 2491.01,5399.77 759.668,5254.65 c -2.035,-0.18 -3.832,1.38 -4.008,3.47 l -20.133,237.31 c -0.172,2.07 1.332,3.91 3.368,4.07 l 1731.335,145.11 c 2.05,0.18 3.83,-1.38 4.02,-3.45 l 20.12,-237.32 c 0.19,-2.08 -1.33,-3.9 -3.36,-4.07"
         style="fill:#5d66d3;fill-opacity:1;fill-rule:nonzero;stroke:none"
         id="path118"
         inkscape:connector-curvature="0" /><path
         d="m 2192.76,5616.76 -1103.59,-92.49 -41.03,483.64 1103.59,92.49 6.29,-26.59 c 33.29,-140.66 45.59,-285.57 36.46,-429.79 l -1.72,-27.26"
         style="fill:#d67086;fill-opacity:1;fill-rule:nonzero;stroke:none"
         id="path120"
         inkscape:connector-curvature="0" /><path
         d="m 1430.2,5556.09 -218.99,-18.36 -40.48,477.22 218.99,18.35 40.48,-477.21"
         style="fill:#eed5d5;fill-opacity:1;fill-rule:nonzero;stroke:none"
         id="path122"
         inkscape:connector-curvature="0" /><path
         d="m 1381.16,5551.97 -122.95,-10.3 -40.49,477.22 122.96,10.3 40.48,-477.22"
         style="fill:#d67086;fill-opacity:1;fill-rule:nonzero;stroke:none"
         id="path124"
         inkscape:connector-curvature="0" /><g
         id="g126"><g
           id="g128"
           clip-path="url(#clipPath132)"><path
             d="m 1050.59,5979.01 v 0 0.01 -0.01"
             style="fill:#dedede;fill-opacity:1;fill-rule:nonzero;stroke:none"
             id="path134"
             inkscape:connector-curvature="0" /><path
             d="m 1050.59,5979.02 -2.22,26.19 2.22,-26.19 v 0"
             style="fill:#242440;fill-opacity:1;fill-rule:nonzero;stroke:none"
             id="path136"
             inkscape:connector-curvature="0" /><path
             d="m 2177.92,5974.47 h -2.73 l -780.75,3.16 -4.72,55.67 -218.99,-18.35 3.09,-36.43 -123.23,0.49 v 0.01 l -2.22,26.19 1103.5,92.5 h 0.1 l 25.95,-123.24"
             style="fill:#ba6275;fill-opacity:1;fill-rule:nonzero;stroke:none"
             id="path138"
             inkscape:connector-curvature="0" /><path
             d="m 1394.44,5977.63 -49.4,0.2 -4.36,51.36 -122.96,-10.3 3.44,-40.56 -47.34,0.19 -3.09,36.43 218.99,18.35 4.72,-55.67"
             style="fill:#cfbab9;fill-opacity:1;fill-rule:nonzero;stroke:none"
             id="path140"
             inkscape:connector-curvature="0" /><path
             d="m 1345.04,5977.83 -123.88,0.5 -3.44,40.56 122.96,10.3 4.36,-51.36"
             style="fill:#ba6275;fill-opacity:1;fill-rule:nonzero;stroke:none"
             id="path142"
             inkscape:connector-curvature="0" /></g></g><g
         id="g144"><g
           id="g146"
           clip-path="url(#clipPath150)"><path
             d="m 1546.66,6583.77 h -0.41 c -38.53,0.13 -71.33,30.35 -74.72,70.25 -0.18,2.16 -0.27,4.29 -0.28,6.41 v 0.55 c 0.13,39.15 29.56,72.29 68.53,75.55 2.09,0.18 4.16,0.26 6.22,0.26 38.65,0 71.58,-30.26 74.98,-70.25 0.17,-2.02 0.26,-4.03 0.28,-6.03 v -1.32 c -0.33,-38.98 -29.69,-71.9 -68.53,-75.16 -2.04,-0.17 -4.06,-0.25 -6.07,-0.26"
             style="fill:#6e7fdd;fill-opacity:1;fill-rule:nonzero;stroke:none"
             id="path152"
             inkscape:connector-curvature="0" /></g></g><path
         d="m 918.926,5393.9 c -16.492,17.55 -34.918,32.09 -55.524,44.26 -8.132,4.8 -14.297,-8.62 -6.23,-13.38 17.562,-10.37 33.164,-22.85 47.492,-37.31 -12.648,-17.68 -26.363,-34.34 -41.418,-49.99 -6.547,-6.82 4.621,-16.37 11.129,-9.59 16.645,17.31 31.719,35.74 45.434,55.55 2.457,3.53 2.043,7.33 -0.883,10.46"
         style="fill:#dddae8;fill-opacity:1;fill-rule:nonzero;stroke:none"
         id="path154"
         inkscape:connector-curvature="0" /><path
         d="m 1002.94,5404.04 c -11.167,14.46 -30.69,26.01 -44.749,37.53 -7.308,5.99 -16.683,-5.31 -9.347,-11.32 11.871,-9.71 28.554,-19.51 39.246,-31.29 -4.938,-7.29 -13.703,-14.4 -19.063,-20.35 -7.14,-7.93 -14.285,-15.85 -21.429,-23.78 -6.332,-7.02 4.812,-16.59 11.132,-9.59 8.571,9.51 17.145,19.02 25.711,28.53 6.34,7.03 15.207,14.02 19.129,22.81 1.03,2.32 0.98,5.37 -0.63,7.46"
         style="fill:#dddae8;fill-opacity:1;fill-rule:nonzero;stroke:none"
         id="path156"
         inkscape:connector-curvature="0" /><path
         d="m 1043.37,5464.83 c -7.22,6.12 -16.59,-5.19 -9.36,-11.31 4.34,-3.69 13.36,-16.9 3.72,-19.64 -8.99,-2.56 -3.91,-16.49 5.07,-13.93 8.98,2.56 13.9,11.46 13.49,20.67 -0.42,9.53 -5.87,18.24 -12.92,24.21"
         style="fill:#dddae8;fill-opacity:1;fill-rule:nonzero;stroke:none"
         id="path158"
         inkscape:connector-curvature="0" /><path
         d="m 1116.77,5401.19 c -5.2,-5.61 -13.96,-6.59 -19.41,-0.91 -11.21,11.76 2.4,28.56 16.21,22.44 1.45,-0.65 2.83,-0.76 4.1,-0.55 3.86,-6.58 4.74,-14.89 -0.9,-20.98 m 10.52,32.77 c -2.29,2.8 -5.46,3.26 -8.16,2.38 -12.66,5.24 -27.87,1.5 -35.86,-10.12 -7.89,-11.49 -5.2,-27.83 4.72,-37.26 10.97,-10.42 27.85,-9.2 38.41,1.14 12,11.75 11.27,31.22 0.89,43.86"
         style="fill:#dddae8;fill-opacity:1;fill-rule:nonzero;stroke:none"
         id="path160"
         inkscape:connector-curvature="0" /><path
         d="m 2159.97,4794.31 -16.69,-1.41 -28.56,336.7 16.69,1.4 28.56,-336.69"
         style="fill:#dddae8;fill-opacity:1;fill-rule:nonzero;stroke:none"
         id="path162"
         inkscape:connector-curvature="0" /><path
         d="m 2227.58,4799.97 -16.7,-1.4 -28.56,336.69 16.69,1.4 28.57,-336.69"
         style="fill:#dddae8;fill-opacity:1;fill-rule:nonzero;stroke:none"
         id="path164"
         inkscape:connector-curvature="0" /><g
         id="g166"><g
           id="g168"
           clip-path="url(#clipPath172)"><path
             d="m 2425.13,4381.89 c -1.85,7.33 -3.85,14.63 -5.99,21.9 2.25,-7.44 4.42,-15.16 5.99,-21.9"
             style="fill:#2f3476;fill-opacity:1;fill-rule:nonzero;stroke:none"
             id="path174"
             inkscape:connector-curvature="0" /><path
             d="m 1056.82,4313.99 v 0 l -2.19,8.19 c 0.01,0.01 0.03,0.03 0.04,0.04 l 1.45,0.12 0.7,-8.35 v 0"
             style="fill:#a6a7a9;fill-opacity:1;fill-rule:nonzero;stroke:none"
             id="path176"
             inkscape:connector-curvature="0" /><path
             d="m 1056.82,4313.99 -0.7,8.35 83.72,7.02 54.1,4.53 1.11,-13.07 -138.23,-6.83 m 327.09,16.16 -1.65,19.53 1026.39,86.02 c 0,0 5.45,-15.27 10.49,-31.91 2.14,-7.27 4.14,-14.57 5.99,-21.9 0.02,-0.11 0.05,-0.21 0.07,-0.32 v 0 l -1041.29,-51.42"
             style="fill:#c5c2cf;fill-opacity:1;fill-rule:nonzero;stroke:none"
             id="path178"
             inkscape:connector-curvature="0" /><path
             d="m 1195.05,4320.82 -1.11,13.07 188.32,15.79 1.65,-19.53 -188.86,-9.33"
             style="fill:#2f3476;fill-opacity:1;fill-rule:nonzero;stroke:none"
             id="path180"
             inkscape:connector-curvature="0" /><path
             d="m 1054.63,4322.18 -0.01,0.04 h 0.05 c -0.01,-0.01 -0.03,-0.03 -0.04,-0.04"
             style="fill:#2f3476;fill-opacity:1;fill-rule:nonzero;stroke:none"
             id="path182"
             inkscape:connector-curvature="0" /><path
             d="m 1054.62,4322.22 v 0 l 85.22,7.14 -83.72,-7.02 -1.45,-0.12 h -0.05"
             style="fill:#3f46a6;fill-opacity:1;fill-rule:nonzero;stroke:none"
             id="path184"
             inkscape:connector-curvature="0" /></g></g><path
         d="M 2421.74,5151.75 690.395,5006.64 c -2.032,-0.18 -3.829,1.37 -4.004,3.45 l -20.129,237.32 c -0.176,2.07 1.332,3.91 3.363,4.07 l 1731.345,145.11 c 2.04,0.17 3.82,-1.37 4.01,-3.45 l 20.12,-237.32 c 0.19,-2.07 -1.33,-3.9 -3.36,-4.07"
         style="fill:#292949;fill-opacity:1;fill-rule:nonzero;stroke:none"
         id="path186"
         inkscape:connector-curvature="0" /><path
         d="m 907.563,5097.7 -26.184,-2.2 -8.504,100.16 26.195,2.21 8.493,-100.17"
         style="fill:#dddae8;fill-opacity:1;fill-rule:nonzero;stroke:none"
         id="path188"
         inkscape:connector-curvature="0" /><path
         d="m 989.828,5104.59 -26.191,-2.2 -8.5,100.17 26.195,2.21 8.496,-100.18"
         style="fill:#dddae8;fill-opacity:1;fill-rule:nonzero;stroke:none"
         id="path190"
         inkscape:connector-curvature="0" /><path
         d="M 2497.17,5404.8 761.012,5256.86 c -5.114,-0.46 -9.328,4.04 -8.664,9.21 l 1738.482,161.95 6.34,-23.22"
         style="fill:#eed5d5;fill-opacity:1;fill-rule:nonzero;stroke:none"
         id="path192"
         inkscape:connector-curvature="0" /><path
         d="M 2489.94,5414.81 753.785,5266.87 c -5.113,-0.46 -9.328,4.03 -8.664,9.21 l 1738.479,161.95 6.34,-23.22"
         style="fill:#dddae8;fill-opacity:1;fill-rule:nonzero;stroke:none"
         id="path194"
         inkscape:connector-curvature="0" /><path
         d="m 972.563,5962.22 c 0,0 77.767,-302.32 27.125,-434.24 l 89.482,-3.71 -40.8,480.94 -75.807,-42.99"
         style="fill:#babcbe;fill-opacity:1;fill-rule:nonzero;stroke:none"
         id="path196"
         inkscape:connector-curvature="0" /><path
         d="m 2302.65,4392.3 c 1.06,2.97 2.18,6.02 3.98,8.47 16.77,22.88 39.21,24.77 61.54,42.12 9.96,7.73 7.15,40.04 32.01,31.38 9.18,-3.2 30.58,-14.22 50.08,-21.22 28.43,-10.23 70.65,-5.98 103.55,3.56 44.22,12.84 90.71,27.45 132.18,46.59 43.4,20.03 85.73,42.36 127.07,66.35 34.44,20 89.09,42.93 115.13,73.36 44.03,51.46 -6.96,176.91 -12.77,241.18 -6.04,66.98 -0.18,264.31 90.24,269.89 148.14,9.14 150.46,-131.62 157.08,-244.96 4.14,-70.73 3.84,-142.8 -2.51,-213.41 -8.9,-98.89 -72.98,-155.51 -157.67,-202.32 -89.76,-49.61 -181.56,-98.25 -280.2,-127.77 -47.95,-14.36 -95.14,-18.65 -144.06,-26.56 -48.35,-7.8 -42.17,-28.89 -82.74,-46.58 -22.64,-9.87 -43.85,-24.21 -68.02,-29.72 -43.33,-9.89 -78.05,20.14 -110.98,43.39 -8.2,5.8 -13.75,9.68 -18,18.07 -6.92,13.64 -4.23,28.23 -2.07,42.81 1.27,8.64 3.24,17.2 6.16,25.37"
         style="fill:#efbfa5;fill-opacity:1;fill-rule:nonzero;stroke:none"
         id="path198"
         inkscape:connector-curvature="0" /><path
         d="m 3159.99,4870.74 c -83.75,-16.23 -167.49,-32.47 -251.25,-48.7 5.37,1.04 -96.9,375.51 -102.24,398.01 -20.32,85.88 -40.74,175.01 -23.34,261.52 37.16,184.73 126.21,230.2 238.4,36.09 105.9,-183.21 271.9,-402.54 239.03,-611.07 -0.72,-4.53 -1.57,-9.28 -4.43,-12.85 -3.94,-4.92 -10.66,-6.43 -16.84,-7.62 l -79.33,-15.38"
         style="fill:#353a85;fill-opacity:1;fill-rule:nonzero;stroke:none"
         id="path200"
         inkscape:connector-curvature="0" /><path
         d="m 5242.08,5502.26 c 121.65,-74.04 257.73,-124.26 398.32,-147 25.12,115.22 51.69,230.12 79.73,344.68 12.09,49.37 24.73,99.54 48.9,144.63 12.86,23.98 61.18,67.68 46.16,98.78 -26.32,54.48 -140.86,-5.81 -173.57,-23.92 -85.32,-47.23 -163.35,-112.93 -230.44,-183.25 -16.2,-16.98 -183.94,-224.89 -169.1,-233.92"
         style="fill:#8cabef;fill-opacity:1;fill-rule:nonzero;stroke:none"
         id="path202"
         inkscape:connector-curvature="0" /><path
         d="m 6413.97,2791.26 7.76,-471.58 c -3.18,-130.84 8.61,-261.27 16.57,-391.68 7.4,-121.13 -17.02,-245.99 40.45,-358.25 18.03,-35.2 56.37,-59.72 85.55,-19.07 22.49,31.34 12.14,85.57 17.69,121.95 41.75,273.38 119.45,539.97 158.21,813.86 40.6,286.91 -70.39,279.33 -326.23,304.77"
         style="fill:#efbfa5;fill-opacity:1;fill-rule:nonzero;stroke:none"
         id="path204"
         inkscape:connector-curvature="0" /><path
         d="m 6440.76,1650.36 -30.31,-78.67 149.18,-131.32 136.68,-5.63 44.2,72.12 -183.81,159.83 -115.94,-16.33"
         style="fill:#292949;fill-opacity:1;fill-rule:nonzero;stroke:none"
         id="path206"
         inkscape:connector-curvature="0" /><path
         d="m 6079.9,2786.66 -86.01,-463.74 c -29.82,-207.45 -97.59,-409.48 -127.41,-616.94 -6.85,-47.71 -3.4,-99.88 -23.33,-144.89 -19.5,-44.01 -57.68,-45.76 -91.37,-15.88 -45.13,40 -24.31,111.5 -23.49,166.15 5.53,364.06 -23.1,722.98 -30,1087.63 -0.1,4.79 0.13,10.27 3.82,13.3 3.01,2.48 7.28,2.42 11.17,2.16 35.4,-2.36 364.77,-37.81 366.62,-27.79"
         style="fill:#efbfa5;fill-opacity:1;fill-rule:nonzero;stroke:none"
         id="path208"
         inkscape:connector-curvature="0" /><path
         d="m 5727.24,1631 -47.3,-69.8 115.71,-161.6 131.88,-36.34 59.33,60.28 -142.99,197.19 -116.63,10.27"
         style="fill:#292949;fill-opacity:1;fill-rule:nonzero;stroke:none"
         id="path210"
         inkscape:connector-curvature="0" /><path
         d="m 6900.01,2491.2 -64.34,674.21 -31.03,438.05 -104.32,357.78 -563.29,87.42 -696.42,-119.36 -33.47,-135.32 134.02,-1252.44 671.72,-50.34 -9.1,779.51 103.61,-483.16 -4.39,-296.35 h 597.01"
         style="fill:#292949;fill-opacity:1;fill-rule:nonzero;stroke:none"
         id="path212"
         inkscape:connector-curvature="0" /><path
         d="m 5588.46,5278.51 c -0.95,-22.77 -1.59,-45.53 -1.98,-68.23 -8.15,-462.46 17.34,-930.81 20.27,-1397.1 238.82,37.39 480.24,57.97 721.94,61.63 19.89,0.3 64.88,-4.47 116.19,-9.25 92.97,-8.65 206.69,-17.29 229.5,4.23 48.06,45.33 -4.79,36.79 -1.28,95.85 4.57,76.4 -32.15,138.97 -18.29,229.52 16.3,106.41 48.73,211.66 67.41,318.05 37.44,213.34 59.99,429.29 67.29,645.76 6.5,192.01 -0.47,391.13 -83.04,564.61 -203.61,427.76 -860.06,420.06 -1040.2,-26.59 -53.35,-132.28 -71.86,-275.5 -77.81,-418.48"
         style="fill:#ffffff;fill-opacity:1;fill-rule:nonzero;stroke:none"
         id="path214"
         inkscape:connector-curvature="0" /><path
         d="m 6329.2,5878.56 -178.29,-324.92 c 9.31,-328.23 18.63,-656.47 27.95,-984.71 4.29,-151.25 8.59,-302.52 12.89,-453.79 1.48,-52.52 2.79,-105.06 4.46,-157.58 0.75,-23.58 -5.74,-63.26 7.7,-82.5 22.37,-32.02 90.29,-31.84 141.75,-31.66 15.67,0.06 29.82,0.11 40.69,-0.74 72.58,-5.72 146.23,-11.66 214.59,-36.71 45.52,-16.68 88.66,-41.81 136.68,-48.56 10.78,-1.5 22.84,-1.72 31.32,5.13 9.47,7.65 11.08,21.23 11.98,33.38 16.69,225.33 17.04,457.65 29.53,685.4 9.82,179.11 34.1,359.67 25.55,539.04 -8.81,184.52 -37.69,368.06 -72.95,549.17 -20.88,107.22 -45.43,216.53 -104.46,308.44 -66.91,104.2 -161.62,145.95 -278.28,169.42 -41.21,8.3 -194.56,66.29 -168.97,-27.39 12.66,-46.33 86.59,-104.21 117.86,-141.42"
         style="fill:#8cabef;fill-opacity:1;fill-rule:nonzero;stroke:none"
         id="path216"
         inkscape:connector-curvature="0" /><path
         d="m 5941.31,5848.01 178.29,-324.92 c -3.73,0 -22.61,-796.49 -24.13,-850.25 -5.8,-204.44 -11.61,-408.89 -17.41,-613.35 -1.61,-56.82 6.02,-123.39 -5.09,-179.25 -15.52,-77.98 -97.62,-62.63 -167.58,-68.94 -153.02,-13.8 -314.14,-39.92 -467.58,-32.18 -44.27,2.24 13.99,925.96 13.91,1012.15 -0.3,310.03 -64.26,653.99 93.22,935.15 45.82,81.79 126.6,212.94 215.77,253.34 83.09,37.62 202.04,44.03 292.24,65.12 l 4.7,-58.45 -116.34,-138.42"
         style="fill:#8cabef;fill-opacity:1;fill-rule:nonzero;stroke:none"
         id="path218"
         inkscape:connector-curvature="0" /><path
         d="m 6328.29,6635.04 c 28.07,-49.19 41.59,-105.86 44.09,-162.44 0.66,-15.04 1.69,-32.41 13.85,-41.29 13.02,-9.51 1.57,-30.37 11.48,-17.66 9.9,12.73 43.54,56.91 45.04,72.96 3.56,37.61 3.5,75.55 -0.15,113.14 -3.18,32.68 -9.86,66.86 -31.25,91.77 -12.69,14.79 -29.62,25.18 -46.29,35.25 -24.17,14.61 -49.08,29.34 -76.86,34.51 -47.86,8.93 -77.21,-8.24 -34.98,-41.63 30.26,-23.91 55.83,-50.91 75.07,-84.61"
         style="fill:#292949;fill-opacity:1;fill-rule:nonzero;stroke:none"
         id="path220"
         inkscape:connector-curvature="0" /><path
         d="m 6029.25,5993.21 c 0.31,-23.16 -4.43,-47.18 16,-65.13 9.82,-8.64 23.1,-12.1 36.02,-14.14 33.38,-5.3 67.96,-2.85 100.27,7.11 13.29,4.1 26.53,9.65 36.57,19.27 11.84,11.38 12.45,22.17 13.01,37.07 0.68,17.45 4.19,35.2 6.49,52.9 4.99,38.72 7.23,77.75 8.36,116.75 57.34,9.83 124.79,28.38 144.39,88.45 6.17,18.92 6.4,39.5 6.54,59.63 0.61,83.23 1.23,166.45 1.83,249.67 0.21,28.79 0.27,58.45 -9.58,85.16 -17.29,46.88 -61.25,74.81 -104.35,92.38 -109.98,44.87 -238.16,43.08 -339.67,-20.73 -27.01,-16.98 -52.51,-38.83 -68.07,-68.48 -23.99,-45.71 -20.98,-102.15 -17.26,-154.91 3.45,-48.69 6.89,-97.38 10.33,-146.08 3.95,-56 12.36,-120.46 55.86,-150.04 23.08,-15.7 52.93,-18.59 72.83,-38.92 34.73,-35.46 18.17,-88.46 28.45,-131.45 1.43,-6.02 1.89,-12.23 1.98,-18.51"
         style="fill:#efbfa5;fill-opacity:1;fill-rule:nonzero;stroke:none"
         id="path222"
         inkscape:connector-curvature="0" /><path
         d="m 6209.51,6211.11 c -29.88,-20.08 -62.81,-21.17 -96.11,-11.15 -14.15,4.26 -8.16,28.02 6.03,23.75 27.59,-8.3 53.65,-8.09 78.52,8.63 12.51,8.42 24,-12.87 11.56,-21.23 m 207.57,117.2 c -0.93,15.42 -7.67,60.65 -30.88,32.23 -6.06,-7.43 -7.57,-17.93 -7.94,-27.84 -0.37,-9.9 0.08,-20.08 -3.04,-29.4 -7.15,-21.39 -30.82,-31.11 -51.91,-30.73 -8.39,0.14 -16.93,1.52 -24.35,5.74 -7.19,4.1 -12.91,10.62 -18.48,17.01 -13.53,15.52 -27.06,31.05 -40.6,46.58 -23.25,26.68 -69.38,15.15 -100.72,11.05 -36.13,-4.71 -72.27,-15.61 -101.78,-39.38 -2.98,-2.39 -5.89,-4.91 -8.8,-7.43 -7.11,-6.13 -14.26,-12.21 -22.54,-16.24 -27.9,-13.58 -62.44,0.6 -81.99,26 -8.96,11.65 -17.31,26.63 -31.23,28.58 -10.89,1.53 -21.49,-6.29 -27.08,-16.47 -5.57,-10.2 -7.09,-22.34 -7.84,-34.14 -2.75,-42.99 3.17,-87.33 21.81,-125.45 40.4,-82.68 118.51,-92.83 197.03,-90.98 31.03,0.73 62.07,1.47 93.1,2.2 56.73,1.34 116.7,3.7 164.5,36.67 42.16,29.1 67.22,78.56 77.5,130.37 5.3,26.75 6.89,54.35 5.24,81.63"
         style="fill:#292949;fill-opacity:1;fill-rule:nonzero;stroke:none"
         id="path224"
         inkscape:connector-curvature="0" /><path
         d="m 6428.94,6779.27 c 5.46,20.16 9.52,40.72 12.1,61.46 -19.2,-6.74 -40.11,-8.52 -60.18,-5.15 -0.05,11.96 -0.09,23.92 -0.14,35.89 -0.09,9.97 -134.73,16.93 -145.68,17.83 -102.42,8.4 -196.09,16.39 -288.71,-38.58 -79.12,-46.96 -129.85,-117.08 -141.98,-208.36 -11.6,-87.18 16.94,-201.06 67.36,-273.44 -0.28,23.22 -13.64,77.97 -8.17,100.04 3.36,22.1 10.99,43.42 21.53,63.11 21.04,39.29 53.65,72.36 91.3,95.97 60.04,37.61 129.83,57.51 199.55,67.22 63.86,8.9 141.7,17.1 204.8,0.18 30.32,-8.13 35.36,-15.73 53.73,14.87 3.24,5.4 28.92,68.44 26.4,68.47 -10.64,0.17 -21.28,0.33 -31.91,0.49"
         style="fill:#292949;fill-opacity:1;fill-rule:nonzero;stroke:none"
         id="path226"
         inkscape:connector-curvature="0" /><path
         d="M 8425.03,5234 6137.49,5006.6 3849.94,5234 c -64.37,6.4 -119.11,-46.81 -115.11,-111.9 l 95.44,-2263.27 c 3.18,-51.72 42.9,-93.5 94.02,-98.75 376.37,-38.71 1845.19,-185.34 2009.87,-204.07 8.33,-0.95 15.6,-5.86 19.45,-13.36 11.05,-21.54 50.74,-65.63 183.88,-65.63 133.13,0 172.81,44.09 183.87,65.63 3.85,7.5 11.11,12.41 19.44,13.36 164.68,18.73 1633.51,165.36 2009.87,204.07 51.14,5.25 90.85,47.03 94.03,98.75 l 95.44,2263.27 c 3.99,65.09 -50.75,118.3 -115.11,111.9"
         style="fill:#353a85;fill-opacity:1;fill-rule:nonzero;stroke:none"
         id="path228"
         inkscape:connector-curvature="0" /><path
         d="M 8425.03,5271.46 6137.49,5044.05 3849.94,5271.46 c -64.37,6.39 -119.11,-46.82 -115.11,-111.91 l 95.44,-2263.27 c 3.18,-51.72 42.9,-93.5 94.02,-98.76 376.37,-38.7 1845.19,-185.33 2009.87,-204.06 8.33,-0.95 15.6,-5.86 19.45,-13.36 11.05,-21.54 50.74,-65.63 183.88,-65.63 133.13,0 172.81,44.09 183.87,65.63 3.85,7.5 11.11,12.41 19.44,13.36 164.68,18.73 1633.51,165.36 2009.87,204.06 51.14,5.26 90.85,47.04 94.03,98.76 l 95.44,2263.27 c 3.99,65.09 -50.75,118.3 -115.11,111.91"
         style="fill:#5d66d3;fill-opacity:1;fill-rule:nonzero;stroke:none"
         id="path230"
         inkscape:connector-curvature="0" /><path
         d="M 6146.09,5060.54 C 5092.23,5765.32 4029.74,5446.26 4029.74,5446.26 V 2998.37 c 1468.84,298 2107.74,-319.3 2107.74,-319.3 0,0 638.91,617.3 2107.75,319.3 v 2447.89 c 0,0 -1045.27,319.06 -2099.14,-385.72"
         style="fill:#dfd8c7;fill-opacity:1;fill-rule:nonzero;stroke:none"
         id="path232"
         inkscape:connector-curvature="0" /><path
         d="m 4029.74,5446.25 c 0,0 -47.14,-186.25 -210.89,-298 l 105.44,-2338.81 c 0,0 105.45,82.49 105.45,188.92 v 2447.89"
         style="fill:#c1bbac;fill-opacity:1;fill-rule:nonzero;stroke:none"
         id="path234"
         inkscape:connector-curvature="0" /><path
         d="m 8245.22,5446.25 c 0,0 47.14,-186.25 210.89,-298 L 8350.67,2809.44 c 0,0 -105.45,82.49 -105.45,188.92 v 2447.89"
         style="fill:#c1bbac;fill-opacity:1;fill-rule:nonzero;stroke:none"
         id="path236"
         inkscape:connector-curvature="0" /><path
         d="m 3924.3,2809.45 c 0,0 1465.11,335.26 2120.13,-255.44 h 93.05 v 125.06 c 0,0 -661.23,627.94 -2107.73,319.3 L 3924.3,2809.45"
         style="fill:#cbc4b5;fill-opacity:1;fill-rule:nonzero;stroke:none"
         id="path238"
         inkscape:connector-curvature="0" /><path
         d="m 8350.67,2809.45 c 0,0 -1465.12,335.26 -2120.14,-255.44 h -93.04 v 125.06 c 0,0 661.22,627.94 2107.72,319.3 l 105.46,-188.92"
         style="fill:#cbc4b5;fill-opacity:1;fill-rule:nonzero;stroke:none"
         id="path240"
         inkscape:connector-curvature="0" /><path
         d="m 5045.69,5596.04 c -126.97,12.57 -252.96,17.65 -372.96,18.84 -55.31,0.55 -510.21,-16.79 -510.21,-32.28 V 4890.46 3119.43 c 0,15.57 455.95,32.86 511.42,32.27 391.61,-4.14 831.67,-75.84 1177.93,-267.03 57.87,-31.95 292.51,-157.62 292.51,-245.95 v 2397.4 c 0,48.88 -18.21,96.08 -51.69,131.91 -262.93,281.4 -659.5,389.65 -1047,428.01"
         style="fill:#f4f4f4;fill-opacity:1;fill-rule:nonzero;stroke:none"
         id="path242"
         inkscape:connector-curvature="0" /><path
         d="m 7243.07,5596.04 c 126.97,12.57 252.97,17.65 372.95,18.84 55.32,0.55 510.22,-16.79 510.22,-32.28 V 4890.46 3119.43 c 0,15.57 -455.95,32.86 -511.42,32.27 -391.62,-4.14 -831.67,-75.84 -1177.93,-267.03 -57.87,-31.95 -292.51,-157.62 -292.51,-245.95 v 2397.4 c 0,48.88 18.21,96.08 51.69,131.91 262.92,281.4 659.5,389.65 1047,428.01"
         style="fill:#ffffff;fill-opacity:1;fill-rule:nonzero;stroke:none"
         id="path244"
         inkscape:connector-curvature="0" /><g
         id="g246"><g
           id="g248"
           clip-path="url(#clipPath252)"><path
             d="m 6144.38,2638.72 v 2397.4 c 0,48.88 18.21,96.08 51.69,131.91 262.92,281.4 659.5,389.65 1047,428.01 126.97,12.57 252.97,17.65 372.95,18.84 0.86,0.01 1.81,0.02 2.85,0.02 66.41,0 507.37,-17.05 507.37,-32.3 v -692.14 -91.55 c -62.84,-369.24 -71.33,-780.69 -5.8,-1115.86 1.94,-0.17 3.85,-0.33 5.8,-0.49 v -563.13 c 0,15.31 -440.94,32.28 -508.34,32.28 -1.13,0 -2.16,0 -3.08,-0.01 -77.61,-0.82 -157.14,-4.3 -237.44,-10.83 -1001.47,434.96 -1198.27,1499.75 -1233,1776.74 v -2278.9 c 0,0.01 0,0.01 0,0.01 m 292.51,245.95 c 0.61,0.33 1.24,0.68 1.85,1.02 -0.61,-0.34 -1.24,-0.68 -1.85,-1.02 m 2.45,1.35 c 0.43,0.23 0.84,0.46 1.26,0.69 -0.42,-0.23 -0.83,-0.46 -1.26,-0.69 m 1.96,1.08 c 0.41,0.22 0.81,0.44 1.22,0.66 -0.41,-0.22 -0.82,-0.44 -1.22,-0.66 m 1.89,1.03 c 0.51,0.28 1.04,0.57 1.55,0.85 -0.53,-0.29 -1.02,-0.56 -1.55,-0.85 m 2.02,1.1 c 0.54,0.29 1.08,0.59 1.62,0.88 -0.53,-0.29 -1.09,-0.59 -1.62,-0.88 m 2.43,1.32 c 0.34,0.19 0.68,0.37 1.02,0.55 -0.34,-0.18 -0.68,-0.36 -1.02,-0.55 m 1.94,1.05 c 0.29,0.16 0.61,0.33 0.9,0.49 -0.3,-0.16 -0.6,-0.33 -0.9,-0.49 m 1.87,1.01 c 0.3,0.16 0.58,0.31 0.89,0.48 -0.3,-0.16 -0.6,-0.32 -0.89,-0.48 m 2.88,1.54 c 0.19,0.11 0.39,0.22 0.58,0.32 -0.19,-0.1 -0.39,-0.21 -0.58,-0.32 m 1.8,0.97 c 0.19,0.1 0.38,0.2 0.57,0.3 -0.2,-0.1 -0.38,-0.2 -0.57,-0.3 m 1.81,0.96 c 0.17,0.09 0.34,0.18 0.51,0.28 -0.17,-0.1 -0.34,-0.19 -0.51,-0.28 m 1.85,0.99 c 0.02,0.01 0.02,0.01 0.03,0.02 -0.02,-0.02 -0.01,-0.01 -0.03,-0.02"
             style="fill:#f4f4f4;fill-opacity:1;fill-rule:nonzero;stroke:none"
             id="path254"
             inkscape:connector-curvature="0" /></g></g><g
         id="g256"><g
           id="g258"
           clip-path="url(#clipPath262)"><path
             d="m 6206.47,2733.85 c 0.92,0.83 1.83,1.64 2.77,2.46 l 0.01,0.01 c -0.92,-0.82 -1.85,-1.64 -2.76,-2.46 -0.02,-0.01 0,0 -0.02,-0.01"
             style="fill:#5a63ca;fill-opacity:1;fill-rule:nonzero;stroke:none"
             id="path264"
             inkscape:connector-curvature="0" /><path
             d="m 6209.24,2736.31 c 73.9,65.17 189.4,127.24 227.65,148.36 v 0 0 c -38.25,-21.12 -153.73,-83.18 -227.64,-148.35 l -0.01,-0.01 m 229.5,149.38 c 0.21,0.12 0.39,0.22 0.6,0.33 -0.2,-0.11 -0.4,-0.22 -0.6,-0.33 m 1.86,1.02 c 0.24,0.13 0.47,0.26 0.7,0.39 -0.24,-0.13 -0.46,-0.26 -0.7,-0.39 m 1.92,1.05 c 0.21,0.12 0.46,0.26 0.67,0.37 -0.22,-0.12 -0.45,-0.25 -0.67,-0.37 m 2.22,1.22 c 0.15,0.08 0.32,0.17 0.47,0.25 -0.16,-0.09 -0.31,-0.17 -0.47,-0.25 m 2.09,1.13 c 0.28,0.15 0.54,0.29 0.81,0.44 -0.27,-0.15 -0.54,-0.29 -0.81,-0.44 m 1.83,0.99 c 0.32,0.18 0.6,0.33 0.92,0.5 -0.3,-0.16 -0.61,-0.33 -0.92,-0.5 m 1.82,0.99 c 0.32,0.17 0.65,0.34 0.97,0.52 -0.33,-0.18 -0.64,-0.35 -0.97,-0.52 m 1.86,1 c 0.66,0.35 1.33,0.71 1.99,1.06 -0.67,-0.35 -1.33,-0.71 -1.99,-1.06 m 2.57,1.38 c 0.41,0.22 0.82,0.43 1.22,0.65 -0.41,-0.22 -0.81,-0.43 -1.22,-0.65 m 1.79,0.95 c 0.4,0.22 0.83,0.45 1.24,0.66 -0.41,-0.22 -0.83,-0.44 -1.24,-0.66 m 1.75,0.94 c 0.45,0.23 0.89,0.47 1.34,0.71 -0.44,-0.24 -0.9,-0.48 -1.34,-0.71 m 1.37,0.73 c 273.2,145.02 601.54,218.08 917.56,243.78 0.07,-0.03 0.07,-0.03 0.07,-0.03 v 0 l -0.01,-0.09 c -316.04,-25.7 -644.4,-98.64 -917.62,-243.66"
             style="fill:#d6cfbf;fill-opacity:1;fill-rule:nonzero;stroke:none"
             id="path266"
             inkscape:connector-curvature="0" /><path
             d="m 6144.38,2638.72 v 0 -0.01 0.01 c 0,29.21 25.66,62.5 62.09,95.13 0.02,0.01 0,0 0.02,0.01 -36.44,-32.63 -62.1,-65.93 -62.11,-95.14"
             style="fill:#c3bcae;fill-opacity:1;fill-rule:nonzero;stroke:none"
             id="path268"
             inkscape:connector-curvature="0" /><path
             d="m 6144.38,2638.72 v 0 -0.01 c 0,29.22 25.66,62.51 62.09,95.14 v 0 c -36.43,-32.63 -62.09,-65.92 -62.09,-95.13"
             style="fill:#bbb4a7;fill-opacity:1;fill-rule:nonzero;stroke:none"
             id="path270"
             inkscape:connector-curvature="0" /><path
             d="m 6144.38,2638.71 v 2278.9 c 34.73,-276.99 231.53,-1341.78 1233.07,-1776.77 -316.09,-25.67 -644.43,-98.73 -917.63,-243.75 -0.01,-0.01 -0.01,-0.01 -0.03,-0.02 -0.45,-0.24 -0.89,-0.48 -1.34,-0.71 -0.17,-0.1 -0.34,-0.19 -0.51,-0.28 -0.41,-0.21 -0.84,-0.44 -1.24,-0.66 -0.19,-0.1 -0.38,-0.2 -0.57,-0.3 -0.4,-0.22 -0.81,-0.43 -1.22,-0.65 -0.19,-0.1 -0.39,-0.21 -0.58,-0.32 -0.66,-0.35 -1.33,-0.71 -1.99,-1.06 -0.31,-0.17 -0.59,-0.32 -0.89,-0.48 -0.32,-0.18 -0.65,-0.35 -0.97,-0.52 -0.29,-0.16 -0.61,-0.33 -0.9,-0.49 -0.32,-0.17 -0.6,-0.32 -0.92,-0.5 -0.34,-0.18 -0.68,-0.36 -1.02,-0.55 -0.27,-0.15 -0.53,-0.29 -0.81,-0.44 -0.54,-0.29 -1.08,-0.59 -1.62,-0.88 -0.15,-0.08 -0.32,-0.17 -0.47,-0.25 -0.51,-0.28 -1.04,-0.57 -1.55,-0.85 -0.21,-0.11 -0.46,-0.25 -0.67,-0.37 -0.41,-0.22 -0.81,-0.44 -1.22,-0.66 -0.23,-0.13 -0.46,-0.26 -0.7,-0.39 -0.42,-0.23 -0.83,-0.46 -1.26,-0.69 -0.21,-0.11 -0.39,-0.21 -0.6,-0.33 -0.61,-0.34 -1.24,-0.69 -1.85,-1.02 v 0 c -38.74,-21.38 -156.66,-84.75 -230.42,-150.82 -36.43,-32.63 -62.09,-65.92 -62.09,-95.13"
             style="fill:#eae9e9;fill-opacity:1;fill-rule:nonzero;stroke:none"
             id="path272"
             inkscape:connector-curvature="0" /></g></g><path
         d="m 10189.5,5012.91 c -3.3,1.47 -6.8,2.96 -10.3,3.4 -32.6,4.11 -52.1,-13.31 -84.6,-18.29 -5.1,-0.78 -11.5,2.19 -18.2,5.16 -12.3,5.48 -25.7,10.96 -33.8,-7.12 -4.6,-10.29 -12.4,-37.13 -22.1,-59.17 -14,-32.12 -51.31,-64.35 -85.61,-84.47 -134.79,-79.06 -287.37,-119.26 -439.55,-154.27 -8.67,-2 -17.75,-3.95 -26.37,-1.72 -15.44,3.99 -24.36,19.61 -31.87,33.68 -34.79,65.22 -75.65,127.2 -121.88,184.88 -41.25,51.45 -88.21,100.57 -147.61,129.22 -59.41,28.65 -133.58,33.69 -189.58,-1.14 -41.95,-26.09 -69.88,-73.42 -72.42,-122.75 -6.33,-122.32 154.81,-200.11 239.06,-262.73 79.73,-59.26 163.59,-112.93 250.8,-160.45 10.77,-5.87 21.96,-11.76 34.18,-12.93 13,-1.23 25.84,3.01 38.21,7.23 159.27,54.4 312.83,122.56 465.81,194.18 42.03,19.68 68.43,58.96 107.43,76.8 14.5,6.66 30,6.36 45.6,6.07 11.1,-0.21 22.1,-0.42 32.9,1.89 25.6,5.48 57.9,19.22 79.6,33.74 42.9,28.66 45.3,81.92 52,128.23 1.6,11.54 2.8,19.32 -0.9,29.6 -6,16.72 -20.4,26.1 -34.4,35.91 -8.3,5.81 -17.1,10.99 -26.4,15.05"
         style="fill:#efbfa5;fill-opacity:1;fill-rule:nonzero;stroke:none"
         id="path274"
         inkscape:connector-curvature="0" /><path
         d="m 9131.88,4703.29 c 80.51,57.67 161.03,115.35 241.55,173.02 -5.17,-3.7 -239.35,381.37 -254.07,403.82 -56.2,85.66 -115.08,174.01 -201.93,228.37 -185.43,116.06 -419.65,-51.51 -348.4,-266.31 77.36,-233.2 250.26,-456.46 452.34,-595.12 4.38,-3.02 9.05,-6.09 14.36,-6.53 7.3,-0.6 13.92,3.86 19.87,8.11 25.43,18.22 50.85,36.43 76.28,54.64"
         style="fill:#dddae8;fill-opacity:1;fill-rule:nonzero;stroke:none"
         id="path276"
         inkscape:connector-curvature="0" /><path
         d="m 8947.02,1708.55 -3.51,-248.6 147.31,-1.96 3.91,275.61 -147.71,-25.05"
         style="fill:#efbfa5;fill-opacity:1;fill-rule:nonzero;stroke:none"
         id="path278"
         inkscape:connector-curvature="0" /><path
         d="m 9077.71,1496.92 -128.13,-42.34 -38.18,-41.11 6.45,-97.44 346.35,-26.92 c 29.26,42.61 10.22,100.4 -38.6,117.17 l -16.12,5.54 -131.77,85.1"
         style="fill:#292949;fill-opacity:1;fill-rule:nonzero;stroke:none"
         id="path280"
         inkscape:connector-curvature="0" /><path
         d="m 7885.36,1946.87 -97.58,-228.69 135.56,-57.7 108.18,253.53 -146.16,32.86"
         style="fill:#efbfa5;fill-opacity:1;fill-rule:nonzero;stroke:none"
         id="path282"
         inkscape:connector-curvature="0" /><path
         d="m 7920.81,1656.19 c -4.86,5.38 -10.52,10.48 -17.09,15.28 -16.29,11.9 -147.62,81.49 -158.9,50.12 -1.82,-5.09 -1.24,-10.7 -0.6,-16.07 10.82,-90.26 31.99,-179.26 62.98,-264.72 13.25,-36.55 33.36,-77.04 71.17,-86.15 16.56,-4 33.97,-1.06 50.59,2.71 24.53,5.56 48.66,12.88 72.13,21.89 8.59,3.29 17.71,7.34 22.16,15.39 8.92,16.1 -6.63,35.17 -22.87,43.85 -16.23,8.68 -36.05,14.91 -43.98,31.52 -3.55,7.44 -4.06,15.93 -4.5,24.17 -3.32,61.16 7.07,119.88 -31.09,162.01"
         style="fill:#292949;fill-opacity:1;fill-rule:nonzero;stroke:none"
         id="path284"
         inkscape:connector-curvature="0" /><path
         d="m 8810.94,2860.65 c -48.34,-221.02 -186.52,-379.78 -334.1,-542.31 -168.9,-185.99 -327.78,-381.05 -475.71,-584.11 -63.94,26.66 -127.88,53.33 -191.82,79.99 53.44,310.58 200.77,595.54 314.93,889.28 79.33,204.12 143.6,419.96 147.09,640.55 1.73,109.71 -24.85,210.03 -39.08,316.73 -17.63,132.18 -18.64,267.64 -34.57,400.43 -5.35,44.53 -8.38,97.19 25.85,126.14 15.25,12.9 35.34,18.32 54.94,22.12 727.1,140.81 624.36,-928.57 532.47,-1348.82"
         style="fill:#babcbe;fill-opacity:1;fill-rule:nonzero;stroke:none"
         id="path286"
         inkscape:connector-curvature="0" /><path
         d="m 8218.6,4019.61 c -0.39,134.1 15.98,263.35 41.07,361.91 206.82,11.08 440.56,-11.8 645.12,-53.31 199.92,-40.56 324.61,-84.08 326.06,-300.87 2.65,-398.92 158.57,-738.74 225.9,-1122.18 39.12,-222.83 -28.49,-422.14 -103.39,-628.52 -85.71,-236.14 -158.71,-476.91 -218.55,-720.91 -69.27,0.41 -138.56,0.83 -207.83,1.24 -68.37,307.64 -40.16,627.18 -45.98,942.28 -4.03,218.96 -26.45,443.04 -106.92,648.47 -88.44,225.83 -215.83,135.94 -362.01,266.9 -142.13,127.32 -192.79,373.38 -193.47,604.99"
         style="fill:#babcbe;fill-opacity:1;fill-rule:nonzero;stroke:none"
         id="path288"
         inkscape:connector-curvature="0" /><path
         d="m 8453.46,5554.83 c -22.83,-17.7 -42.9,-39.05 -62.74,-60.19 -17.76,-18.96 -35.54,-37.9 -53.3,-56.85 -61.55,-65.65 -91.96,-162.83 -118.34,-246.71 -138.84,-441.34 -188.8,-1046.87 -98.64,-1508.03 341.96,-29.55 737.75,56.68 1078.95,103.29 33.19,4.53 70.78,11.96 87.99,40.68 10.44,17.4 10.74,38.85 10.74,59.13 -0.04,292.77 -61.91,607.41 -119.94,896.03 -24.49,121.78 -54.66,242.54 -93.35,360.63 -40.94,125 -87.12,259.98 -182.97,354.54 -102.54,101.19 -298.9,151.16 -427.28,72.17 -7.32,-4.51 -14.34,-9.43 -21.12,-14.69"
         style="fill:#d67086;fill-opacity:1;fill-rule:nonzero;stroke:none"
         id="path290"
         inkscape:connector-curvature="0" /><path
         d="m 8490.76,5493.32 c -6.18,39.81 -12.35,79.63 -18.53,119.44 -8.31,3.98 -16.21,8.36 -23.52,13.03 -142.62,91.07 -381.84,580 -1.68,689.45 345.19,99.38 327.23,-375.47 259.86,-573.47 -11.52,-33.9 -26.93,-65.9 -49.75,-93.65 -15.61,-19 -19.11,-15.4 -16.87,-37.4 2.16,-21.3 23.38,-45.4 28.21,-67.86 5.14,-23.95 3.2,-50.5 -10.71,-70.66 -8.52,-12.37 -20.96,-21.57 -34.23,-28.6 -21.09,-11.16 -45.58,-17.32 -69.03,-12.88 -27.87,5.29 -59.32,34.07 -63.75,62.6"
         style="fill:#efbfa5;fill-opacity:1;fill-rule:nonzero;stroke:none"
         id="path292"
         inkscape:connector-curvature="0" /><path
         d="m 8787.97,5921.14 c -28.83,-97.47 -53.3,-135 -87.73,-178.87 -72.13,-91.96 -12.17,234 -41.95,347.03 -2.28,8.62 -4.49,18.39 0.18,25.97 4.37,7.09 13.25,9.74 21.38,11.5 145.38,31.42 144.95,-95.52 108.12,-205.63"
         style="fill:#292949;fill-opacity:1;fill-rule:nonzero;stroke:none"
         id="path294"
         inkscape:connector-curvature="0" /><path
         d="m 8406.05,5745.04 c -23.33,-32.81 -74.42,-23.99 -110.39,-5.9 -147.74,74.28 -234.71,253.07 -201.93,415.16 27.43,135.62 198.39,237.33 232.95,69.29 12.27,-59.58 -24.02,-142.13 -15.72,-208.23 11.87,-94.46 55.9,-184.78 95.09,-270.32"
         style="fill:#292949;fill-opacity:1;fill-rule:nonzero;stroke:none"
         id="path296"
         inkscape:connector-curvature="0" /><path
         d="m 8786.44,6439.8 c 16.55,-6.55 33.39,-13.44 51.15,-20.39 36.74,-14.36 63.35,-19.21 101.23,2.32 10.83,6.15 83.42,74.77 65.96,89.02 115.78,-94.45 20.55,-232.34 -22.88,-329.94 -29.26,-65.79 -35.29,-158.66 -101.07,-201.66 -72.37,-47.29 -122.01,12.5 -187.72,39.3 -57.95,23.64 -120.6,36.43 -179.57,57.48 -97.87,34.9 -243.46,96.23 -211.05,226.23 37.85,151.84 191.68,189.69 329.88,178.07 59.06,-4.95 105.29,-21.14 154.07,-40.43"
         style="fill:#292949;fill-opacity:1;fill-rule:nonzero;stroke:none"
         id="path298"
         inkscape:connector-curvature="0" /><path
         d="m 10333.5,3519.38 -358,538.76 v 1830.31 c 0,32.11 41.7,44.68 59.4,17.95 l 298.6,-449.33 V 3519.38"
         style="fill:#353a85;fill-opacity:1;fill-rule:nonzero;stroke:none"
         id="path300"
         inkscape:connector-curvature="0" /><path
         d="m 10317.5,5439.22 -307.3,456.1 -126.92,-26.33 368.32,-461.23 V 3503.11 l 65.9,16.27 v 1919.84"
         style="fill:#ffffff;fill-opacity:1;fill-rule:nonzero;stroke:none"
         id="path302"
         inkscape:connector-curvature="0" /><path
         d="m 8867.29,5576.7 219.25,79.69 1165.06,-248.63 V 3564.5 L 8867.29,3813.82 V 5576.7"
         style="fill:#ffffff;fill-opacity:1;fill-rule:nonzero;stroke:none"
         id="path304"
         inkscape:connector-curvature="0" /><path
         d="m 10153.9,3462.39 -1358.55,187.94 c -30.31,5.99 -52.16,32.58 -52.16,63.48 v 1805.83 c 0,40.78 37.27,71.4 77.27,63.48 L 10153.9,5400.16 V 3462.39"
         style="fill:#353a85;fill-opacity:1;fill-rule:nonzero;stroke:none"
         id="path306"
         inkscape:connector-curvature="0" /><path
         d="m 10333.5,5457.07 c -3.4,-13.59 -37.5,-34.46 -81.9,-49.31 -48.1,-16.06 -90.7,-19.18 -97.2,-7.42 l -0.5,-0.18 V 3467.41 c -0.4,-1.47 -0.4,-2.86 0,-4.15 v -0.87 l 0.3,0.1 c 5.4,-12.46 48.5,-9.51 97.4,6.82 49.3,16.45 85.8,40.32 81.9,53.46 v 1934.3"
         style="fill:#5d66d3;fill-opacity:1;fill-rule:nonzero;stroke:none"
         id="path308"
         inkscape:connector-curvature="0" /><path
         d="m 9883.28,5868.98 v -382.62 l 368.32,-78.6 z"
         style="fill:#dfd8c7;fill-opacity:1;fill-rule:nonzero;stroke:none"
         id="path310"
         inkscape:connector-curvature="0" /><path
         d="m 10251.6,5407.76 -1060.37,275.8 v -49.53 z"
         style="fill:#cbc4b5;fill-opacity:1;fill-rule:nonzero;stroke:none"
         id="path312"
         inkscape:connector-curvature="0" /><path
         d="M 8903.95,4017.78 10023.3,3862.93 V 3612.26 L 8903.95,3767.1 v 250.68"
         style="fill:#8cabef;fill-opacity:1;fill-rule:nonzero;stroke:none"
         id="path314"
         inkscape:connector-curvature="0" /><g
         id="g316"><g
           id="g318"
           clip-path="url(#clipPath322)"><path
             d="m 10153.8,3462.4 v 0 l -864.37,119.57 v 0.01 l 864.37,-119.58"
             style="fill:#eeeeee;fill-opacity:1;fill-rule:nonzero;stroke:none"
             id="path324"
             inkscape:connector-curvature="0" /><path
             d="m 9289.43,3581.97 -494.08,68.35 v 0 l 494.08,-68.34 v -0.01"
             style="fill:#aeb0b2;fill-opacity:1;fill-rule:nonzero;stroke:none"
             id="path326"
             inkscape:connector-curvature="0" /><path
             d="m 10153.9,3462.4 h -0.1 l -864.37,119.58 -494.08,68.35 c 98.83,23.36 190.68,55.1 275.94,93.62 l 952.01,-131.69 v 250.67 l -621.72,86.01 c 639.52,521.27 752.32,1451.2 752.32,1451.22 V 3467.41 c -0.4,-1.47 -0.4,-2.86 0,-4.15 v -0.86"
             style="fill:#34387d;fill-opacity:1;fill-rule:nonzero;stroke:none"
             id="path328"
             inkscape:connector-curvature="0" /><path
             d="m 10153.9,3462.4 v 0 0.86 c -0.4,1.29 -0.4,2.68 0,4.15 v 1932.75 0 -1937.77"
             style="fill:#5961c5;fill-opacity:1;fill-rule:nonzero;stroke:none"
             id="path330"
             inkscape:connector-curvature="0" /><path
             d="m 10023.3,3612.26 -952.01,131.69 c 123.29,55.7 232.89,125.61 330.29,204.99 l 621.72,-86.01 v -250.67"
             style="fill:#84a0df;fill-opacity:1;fill-rule:nonzero;stroke:none"
             id="path332"
             inkscape:connector-curvature="0" /></g></g><path
         d="m 9592.92,4209.45 c -2.48,2.68 -5.07,5.43 -8.12,7.24 -28.31,16.81 -53.14,8.6 -84.88,16.98 -14.16,3.74 -25.85,39.52 -48.46,18.96 -8.35,-7.59 -26.2,-29.1 -43.84,-45.45 -25.73,-23.85 -72.76,-38.54 -112.24,-43.3 -155.15,-18.72 -311.08,5.3 -464.59,33.89 -8.76,1.63 -17.86,3.48 -24.87,8.96 -12.56,9.81 -14.52,27.71 -15.78,43.59 -5.88,73.69 -18.63,146.82 -38,218.16 -17.31,63.64 -40.76,127.41 -83.82,177.37 -43.04,49.98 -109.04,84.19 -174.3,74.6 -48.85,-7.19 -93.35,-39.44 -115.37,-83.66 -54.6,-109.64 62.12,-245.26 114.4,-336.3 49.46,-86.13 104.95,-168.81 165.96,-247.19 7.53,-9.68 15.45,-19.55 26.18,-25.48 11.43,-6.33 24.91,-7.56 37.93,-8.61 167.75,-13.66 335.75,-12.43 504.59,-7.79 46.4,1.28 86.24,26.77 129.16,27.56 27.39,0.51 49.23,-18.78 75.18,-24.03 25.66,-5.18 60.69,-5.45 86.45,-0.8 50.78,9.16 74.21,57.03 98.79,96.85 6.13,9.91 10.3,16.59 11.02,27.48 1.19,17.72 -8.33,32.08 -17.27,46.67 -5.29,8.64 -11.28,16.9 -18.12,24.3"
         style="fill:#efbfa5;fill-opacity:1;fill-rule:nonzero;stroke:none"
         id="path334"
         inkscape:connector-curvature="0" /><path
         d="m 8499.54,4347.51 c 96.85,20.76 193.68,41.51 290.53,62.28 -6.21,-1.33 -67.32,445.19 -71.87,471.65 -17.35,100.97 -36.1,205.47 -94.05,289.97 -123.72,180.41 -405.35,120.19 -425.71,-105.21 -22.11,-244.69 47.36,-518.39 177.34,-726.16 2.82,-4.51 5.88,-9.2 10.57,-11.72 6.44,-3.45 14.3,-2.01 21.45,-0.48 30.59,6.55 61.16,13.12 91.74,19.67"
         style="fill:#d67086;fill-opacity:1;fill-rule:nonzero;stroke:none"
         id="path336"
         inkscape:connector-curvature="0" /><path
         d="m 5033.18,1773.95 c -12.09,104.57 -64.5,187.59 -161.34,233.05 -78.53,36.87 -166.82,45.54 -252.88,56.58 -191.66,24.6 -374.61,49.19 -568.14,41.58 -154.74,-6.09 -250.12,-138.12 -322.55,-268.33 -45.64,-82.07 -32.96,-120.56 24.5,-189.29 52.98,-63.37 117.28,-117.29 189.11,-158.12 142.23,-80.81 360.71,-60.84 517.33,-43.36 147.84,16.47 292.54,60.62 424.39,129.49 84.87,44.31 161.36,96.58 149.58,198.4"
         style="fill:#292949;fill-opacity:1;fill-rule:nonzero;stroke:none"
         id="path338"
         inkscape:connector-curvature="0" /><path
         d="m 4064.97,1489.72 c -25.66,-60.11 -48.1,-121.61 -67.18,-184.13 -10.11,-33.08 -19.34,-67.1 -18.06,-101.67 2.99,-80.91 93.03,-139.55 151.91,-64.73 25.78,32.77 46.45,69.57 61.07,108.61 21.58,57.6 -23.99,24.05 -62.5,41.73 -44.33,20.37 -43.26,36.21 -24.44,77.76 24.26,53.52 52.96,88.41 49.51,150 -0.94,17 -5.75,36.72 -21.43,43.38 -11.89,5.05 -26.14,0.14 -35.58,-8.68 -9.45,-8.82 -15.07,-20.87 -20.36,-32.66 -4.4,-9.83 -8.71,-19.71 -12.94,-29.61"
         style="fill:#292949;fill-opacity:1;fill-rule:nonzero;stroke:none"
         id="path340"
         inkscape:connector-curvature="0" /><path
         d="m 4365.32,3393.93 c 52.22,-5.08 104.45,-10.16 156.66,-15.23 8.03,46.05 12.77,92.83 14.17,139.76 45.49,7.88 99.02,22.81 114.65,71.43 4.93,15.32 5.13,31.98 5.27,48.29 0.6,67.4 1.19,134.8 1.79,202.2 0.2,23.32 0.29,47.34 -7.49,68.98 -13.65,37.99 -48.48,60.68 -82.64,74.97 -87.17,36.48 -188.86,35.21 -269.47,-16.33 -21.45,-13.71 -41.7,-31.37 -54.09,-55.36 -19.1,-36.99 -16.77,-82.71 -13.89,-125.43 2.66,-39.45 5.32,-78.89 7.99,-118.33 3.06,-45.36 9.65,-97.59 44.11,-121.6 18.29,-12.75 41.96,-15.13 57.72,-31.62 27.79,-29.08 14.98,-80.69 25.22,-121.73"
         style="fill:#b97262;fill-opacity:1;fill-rule:nonzero;stroke:none"
         id="path342"
         inkscape:connector-curvature="0" /><path
         d="m 4579.25,3912.89 c 2.21,-3.66 4.07,-7.48 5.53,-11.44 7.61,-20.81 3.14,-44.51 10.59,-65.38 11.81,-33.07 51,-52.38 57.47,-86.9 5.29,-28.22 -13.58,-55.49 -14.7,-84.2 -1.23,-31.35 19.36,-60.63 16.8,-91.61 -2.23,-26.9 -18.59,-64.96 -34.24,-86.77 4.85,6.76 49.85,5.19 61.38,12.52 17.68,11.23 19.59,18.15 24.58,36.87 4.95,18.57 0.53,36.73 8.42,55.81 9.69,23.42 30.12,40.85 36.94,65.75 9.31,33.99 -9.32,69.34 -8.54,104.58 1.17,53.33 46.33,104.35 28.72,154.71 -10.33,29.54 -39.53,48.01 -56.22,74.48 -12.69,20.1 -17.66,43.95 -26.6,65.98 -8.95,22.01 -24.03,43.93 -46.94,50.25 -12.72,3.5 -26.32,1.74 -39.34,3.92 -22.5,3.77 -41.42,18.92 -63.16,25.85 -31.1,9.91 -85.09,-22.33 -102.67,-48.86 -17.45,-26.33 -8.02,-48.27 10.7,-70.95 31.19,-37.75 105.33,-61.5 131.28,-104.61"
         style="fill:#292949;fill-opacity:1;fill-rule:nonzero;stroke:none"
         id="path344"
         inkscape:connector-curvature="0" /><path
         d="m 4135.53,4058.62 c -18.29,-13.92 -40.99,-24.15 -57.63,-40.34 -32.44,-31.55 -37.83,-81.19 -38.21,-126.45 -0.34,-40.3 -17.33,-76.4 -12.22,-118.29 3.43,-28.15 15.92,-56.44 39.16,-72.68 28.94,-20.22 73.86,-22.81 87.19,-55.5 14.48,-35.51 -21.75,-81.2 1.28,-111.85 12.7,-16.92 37.06,-19 55.01,-30.2 20.03,-12.49 30.6,-35.24 43.06,-55.3 12.46,-20.05 30.97,-40.03 54.57,-40.11 0.32,35.91 0.88,64.36 -15.03,96.9 -9.28,18.96 -36.19,53.76 -16.37,74.83 12.43,17.44 42.4,23.56 42.79,44.97 0.18,10.06 -6.98,18.49 -12.66,26.79 -21.99,32.1 -24.94,75.35 -11.06,111.72 13.87,36.36 43.26,65.73 77.99,83.32 40.68,20.6 33.89,30.51 45.12,70.02 10.33,36.36 30.7,45.2 63.02,58.96 29.02,12.36 38.28,19.9 48.58,47.45 7.54,20.16 16.83,44.31 4.98,66.45 -9.41,17.58 -26.01,29.99 -42.1,41.8 -33.59,24.68 -71.3,50.59 -112.81,46.86 -23.06,-2.08 -44.58,-13.32 -67.67,-15.04 -15.4,-1.15 -30.79,1.99 -46.22,2.23 -26.32,0.42 -53.93,-8.08 -74.95,-24.12 -21.2,-16.18 -20.3,-32.71 -31.84,-55.34 -5.65,-11.08 -14.18,-19.62 -23.98,-27.08"
         style="fill:#292949;fill-opacity:1;fill-rule:nonzero;stroke:none"
         id="path346"
         inkscape:connector-curvature="0" /><path
         d="m 4225.97,4207.83 c 3.59,25.07 0.42,57.61 -23.61,65.63 -13.17,4.39 -27.73,-0.94 -41.38,1.58 -29.09,5.38 -39.58,40.3 -55.23,65.4 -2.34,3.75 -5.12,7.56 -9.2,9.29 -5.82,2.48 -12.41,0.06 -18.68,-0.81 -28.78,-4.04 -51.2,24.04 -78.55,33.86 -33.84,12.18 -75.77,-9.6 -85.27,-44.27 -3.91,-14.25 -2.91,-29.48 -6.57,-43.8 -14.79,-58.02 -98.91,-84.09 -99.98,-143.95 -0.72,-40.45 39.53,-78.47 24.82,-116.17 -9.4,-24.1 -39.91,-40.96 -35.93,-66.52 2.56,-16.46 20.32,-27.37 36.95,-26.83 16.65,0.52 31.77,9.92 44.11,21.09 19.59,17.73 34.19,40.3 52.81,59.03 18.62,18.74 43.64,34.11 69.91,31.31 25.45,-2.72 48.77,-22.08 73.93,-17.41 20.12,3.75 34.78,22.03 54.51,27.45 18.47,5.08 37.88,-1.86 57.02,-2.67 19.13,-0.81 42.42,9.55 42.59,28.7 0.05,4.64 -1.34,9.4 0.04,13.84 3.86,12.41 24.95,12.08 28.72,24.51 -10.24,15.2 -24.21,9.44 -31.72,29.4 -5.81,15.45 -1.55,35.59 0.71,51.34"
         style="fill:#292949;fill-opacity:1;fill-rule:nonzero;stroke:none"
         id="path348"
         inkscape:connector-curvature="0" /><path
         d="m 4507.02,3444.49 c 72.88,9.72 146.89,22.93 207.96,-3.68 51.72,-22.55 50.82,-87.85 62.39,-137.22 38.27,-163.32 67.01,-328.63 89.52,-494.83 10.76,-79.46 29.37,-164.54 28.91,-244.78 -0.38,-64.41 -16.5,-127.01 -11.55,-192.64 3.82,-50.42 25.24,-104.86 71.41,-125.47 23.24,-10.38 49.94,-10.86 73.21,-21.12 23.29,-10.27 43.23,-37.69 31.51,-60.28 -5.57,-10.74 -16.72,-17.2 -27.28,-23.09 -57.59,-32.12 -115.19,-64.23 -172.76,-96.34 -43.99,-24.52 -88.22,-49.16 -135.61,-66.19 -67.16,-24.12 -138.96,-32.34 -210.23,-35.95 -184.06,-9.36 -369.59,11 -547.24,60.02 -95.64,26.4 -188.05,73.22 -164.84,181.44 23.88,111.37 70.07,222.5 119.87,324.49 60.28,123.45 78.17,272.23 120.87,402.52 43.28,132.03 89.05,263.23 135.17,394.29 l 0.53,1.49 c 16.86,47.91 23.77,95.29 60.89,134.18 50.82,53.17 75.28,10.9 132.98,0.08 41.88,-7.87 87.87,-3.1 134.29,3.08"
         style="fill:#ffffff;fill-opacity:1;fill-rule:nonzero;stroke:none"
         id="path350"
         inkscape:connector-curvature="0" /><path
         d="m 4685.99,1423.4 c 16.59,-0.88 33.17,-1.77 49.76,-2.66 18.02,-0.96 38.13,-1.24 51.55,10.83 16.38,14.73 14.53,42.55 1.28,60.15 -13.25,17.6 -34.62,26.98 -55.61,33.7 -50.64,16.24 -104.19,21.23 -157.34,23.32 -5.32,0.22 -10.83,0.36 -15.77,-1.63 -8.61,-3.46 -13.51,-12.55 -16.41,-21.37 -30.15,-91.56 78.07,-98.88 142.54,-102.34"
         style="fill:#b97262;fill-opacity:1;fill-rule:nonzero;stroke:none"
         id="path352"
         inkscape:connector-curvature="0" /><path
         d="m 4047.58,1267.54 c -0.9,-7.38 -1.73,-15.24 1.45,-21.95 2.3,-4.9 6.53,-8.64 11.09,-11.55 34.21,-21.8 80.22,1.68 106.41,32.67 26.19,30.99 43.93,70.18 77.34,93.2 76.48,52.68 6.47,149.13 -73.45,127.01 -93.3,-25.82 -112.88,-137.9 -122.84,-219.38"
         style="fill:#b97262;fill-opacity:1;fill-rule:nonzero;stroke:none"
         id="path354"
         inkscape:connector-curvature="0" /><path
         d="m 5078.11,1764.19 c 66.04,48.52 132.25,103.52 156.38,185.26 24.13,81.73 -9.92,197.16 -95.11,244.3 -103.88,57.45 -205.92,-13.15 -280,-79.82 -151.73,-136.4 -317.09,-256.99 -478.77,-381.75 -54.64,-42.16 -244.2,-197.4 -244.2,-197.4 -5.21,-21.88 96.67,-219.84 123.68,-212.6 294.92,78 581.79,268.43 818.02,442.01"
         style="fill:#292949;fill-opacity:1;fill-rule:nonzero;stroke:none"
         id="path356"
         inkscape:connector-curvature="0" /><path
         d="m 3593.71,1670.17 c -64.66,31.47 -129.69,69.38 -155.26,144.98 -25.57,75.59 3.5,199.99 83.59,269.27 97.65,84.45 197.44,40.18 270.34,-7.38 149.34,-97.26 311.24,-175.16 469.73,-258.18 53.56,-28.06 239.67,-134.39 239.67,-134.39 5.65,-20.55 -85.83,-245.17 -111.9,-244.92 -284.57,1.66 -564.85,118.01 -796.17,230.62"
         style="fill:#292949;fill-opacity:1;fill-rule:nonzero;stroke:none"
         id="path358"
         inkscape:connector-curvature="0" /><path
         d="m 4574.78,1383.44 c 59.42,-28.89 120.4,-54.6 182.58,-76.98 32.9,-11.83 66.79,-22.86 101.76,-23.29 81.85,-0.99 145.53,87.02 72.9,150.18 -31.81,27.66 -67.94,50.35 -106.63,67.06 -57.08,24.66 -25.47,-23.04 -45.25,-61.04 -22.76,-43.75 -38.7,-41.89 -79.72,-20.81 -52.84,27.15 -86.63,57.87 -148.98,57.45 -17.22,-0.12 -37.38,-3.99 -44.88,-19.49 -5.69,-11.75 -1.44,-26.39 7,-36.36 8.43,-9.96 20.32,-16.25 31.96,-22.17 9.71,-4.93 19.47,-9.79 29.26,-14.55"
         style="fill:#292949;fill-opacity:1;fill-rule:nonzero;stroke:none"
         id="path360"
         inkscape:connector-curvature="0" /><path
         d="m 5428.19,2473.39 c -0.94,3.9 -1.88,7.93 -1.69,11.8 1.85,36.06 24.41,53.76 36.03,87.82 5.18,15.19 -20.4,47.6 12.15,55.78 33.7,8.44 98.92,2.73 121.73,33.59 10.07,13.65 22.51,31.57 38.97,27.48 5.64,-1.39 10.26,-5.32 14.43,-9.35 137.99,-133.45 3.85,-294.18 -146.52,-289.15 -12.75,0.43 -21.39,0.67 -31.78,6.63 -16.89,9.67 -24.22,27.09 -32.13,44.1 -4.68,10.08 -8.58,20.57 -11.19,31.3"
         style="fill:#b97262;fill-opacity:1;fill-rule:nonzero;stroke:none"
         id="path362"
         inkscape:connector-curvature="0" /><path
         d="m 5692.58,2449.36 c 34.17,-14.3 76.12,0.16 99.54,28.85 23.42,28.69 29.94,68.58 23.89,105.11 -6.05,36.54 -23.47,70.25 -43.72,101.27 -24,36.75 -54.19,72.08 -95.2,87.7 -22.86,8.72 -47.69,10.73 -72.14,11.26 -16.51,0.37 -34.79,-0.6 -46.68,-12.08 -8.5,-8.22 -11.96,-20.26 -14.49,-31.82 -16.49,-75.12 -3.54,-86.05 45.67,-135.98 43.63,-44.29 75.59,-99.01 103.13,-154.31"
         style="fill:#ffffff;fill-opacity:1;fill-rule:nonzero;stroke:none"
         id="path364"
         inkscape:connector-curvature="0" /><path
         d="m 3427.41,3271.82 v 115.32 c 0,0 618.39,57.46 990.27,-190.22 l -990.27,74.9"
         style="fill:#dfd8c7;fill-opacity:1;fill-rule:nonzero;stroke:none"
         id="path366"
         inkscape:connector-curvature="0" /><path
         d="m 3300.74,3284.13 82.82,63.83 c 0,0 505.7,96.64 1034.12,-151.03 V 1822.16 c 0,0 -358.3,257.61 -1116.94,156.45 v 1305.52"
         style="fill:#ffffff;fill-opacity:1;fill-rule:nonzero;stroke:none"
         id="path368"
         inkscape:connector-curvature="0" /><path
         d="m 5407.95,3271.82 v 115.32 c 0,0 -618.38,57.46 -990.27,-190.22 l 990.27,74.9"
         style="fill:#dfd8c7;fill-opacity:1;fill-rule:nonzero;stroke:none"
         id="path370"
         inkscape:connector-curvature="0" /><path
         d="m 5534.62,3284.13 -82.81,63.83 c 0,0 -505.71,96.64 -1034.13,-151.03 V 1822.16 c 0,0 358.3,257.61 1116.94,156.45 v 1305.52"
         style="fill:#ffffff;fill-opacity:1;fill-rule:nonzero;stroke:none"
         id="path372"
         inkscape:connector-curvature="0" /><path
         d="m 4417.79,3197.61 c 57.62,3.15 101.46,16.84 103.85,33.47 l 0.98,1.08 -0.86,0.36 c 0.98,0.24 1.96,0.49 2.94,0.73 16.39,7.3 93.63,22.77 117.12,27.81 1.66,0.36 3.31,0.73 4.97,1.09 l 0.93,0.22 c 65.52,16.5 131.98,28.72 198.91,37.61 253.89,39.76 440.22,32.66 545.07,17.32 39.11,-4.82 77.33,-12.72 113.73,-25.21 6.66,-2.28 12.97,-4.88 18.85,-7.97 l 0.1,-0.03 -0.02,-0.01 c 12.51,-6.56 23.1,-15.4 31.2,-28.48 10.86,-17.6 11.41,-34.82 11.41,-54.67 v -1214.2 c 0,-34.27 -28.34,-68.23 -62.03,-62.03 -207.32,38.2 -376.19,36.9 -506.07,27.7 -136.91,-9.69 -273.46,-30.5 -405.98,-66.63 -43.16,-11.76 -97.21,-20.95 -136.83,-42.26 -3.78,-2.03 -7.9,-3.52 -12.25,-4.36 -2.69,-0.53 -5.47,-0.81 -8.31,-0.81 -3.35,0 -6.6,0.4 -9.73,1.1 -3.1,1.18 -6.31,2.32 -9.65,3.46 -14.29,7.13 -24.11,21.89 -24.11,38.95 v 1286.17 c 0,10.3 9.02,20.24 25.78,29.59"
         style="fill:#353a85;fill-opacity:1;fill-rule:nonzero;stroke:none"
         id="path374"
         inkscape:connector-curvature="0" /><path
         d="m 4417.99,3197.61 c -57.63,3.15 -101.47,16.84 -103.86,33.47 l -0.97,1.08 0.86,0.36 c -0.98,0.24 -1.97,0.49 -2.96,0.73 -16.38,7.3 -93.62,22.77 -117.11,27.81 -1.65,0.36 -3.32,0.73 -4.97,1.09 l -0.93,0.22 c -65.53,16.5 -131.97,28.72 -198.9,37.61 -253.9,39.76 -440.23,32.66 -545.07,17.32 -39.13,-4.82 -77.34,-12.72 -113.73,-25.21 -6.67,-2.28 -12.98,-4.88 -18.86,-7.97 l -0.09,-0.03 v -0.01 c -12.49,-6.56 -23.09,-15.4 -31.18,-28.48 -10.88,-17.6 -11.42,-34.82 -11.42,-54.67 v -1214.2 c 0,-34.27 28.34,-68.23 62.04,-62.03 207.31,38.2 376.18,36.9 506.06,27.7 136.91,-9.69 273.47,-30.5 405.99,-66.63 43.15,-11.76 97.2,-20.95 136.83,-42.26 3.77,-2.03 7.89,-3.52 12.23,-4.36 2.7,-0.53 5.48,-0.81 8.32,-0.81 3.35,0 6.6,0.4 9.73,1.1 3.09,1.18 6.31,2.32 9.65,3.46 14.3,7.13 24.12,21.89 24.12,38.95 v 1286.17 c 0,10.3 -9.03,20.24 -25.78,29.59"
         style="fill:#353a85;fill-opacity:1;fill-rule:nonzero;stroke:none"
         id="path376"
         inkscape:connector-curvature="0" /><g
         id="g378"><g
           id="g380"
           clip-path="url(#clipPath384)"><path
             d="m 4313.75,1867.92 c -7.47,2.02 -14.98,3.93 -22.44,5.77 7.46,-1.84 14.97,-3.74 22.44,-5.77 v 0"
             style="fill:#292945;fill-opacity:1;fill-rule:nonzero;stroke:none"
             id="path386"
             inkscape:connector-curvature="0" /><path
             d="m 3427.41,1940.12 v 0.01 c 3.49,0.47 6.94,0.93 10.38,1.38 -0.01,-0.01 -0.01,-0.01 -0.01,-0.02 -3.44,-0.45 -6.9,-0.9 -10.37,-1.37"
             style="fill:#e9e9e9;fill-opacity:1;fill-rule:nonzero;stroke:none"
             id="path388"
             inkscape:connector-curvature="0" /><path
             d="m 4109.29,1916.92 c -18.65,3.65 -37.36,7.04 -56.11,10.17 v 0 c 18.75,-3.13 37.46,-6.51 56.11,-10.17"
             style="fill:#292945;fill-opacity:1;fill-rule:nonzero;stroke:none"
             id="path390"
             inkscape:connector-curvature="0" /><path
             d="m 4053.18,1927.09 c -71.63,11.95 -143.9,20.18 -216.28,25.31 -44.73,3.17 -94.08,5.4 -148.04,5.4 -74.86,0 -158.57,-4.29 -251.08,-16.31 0,0.01 0,0.01 0.01,0.02 92.45,12.01 176.13,16.3 250.95,16.3 54,0 103.4,-2.24 148.16,-5.41 72.38,-5.12 144.64,-13.35 216.28,-25.31 v 0"
             style="fill:#292945;fill-opacity:1;fill-rule:nonzero;stroke:none"
             id="path392"
             inkscape:connector-curvature="0" /><path
             d="m 4313.75,1867.92 c -7.47,2.03 -14.98,3.93 -22.44,5.77 -16.76,4.14 -33.26,7.96 -48.42,12.09 -44.13,12.03 -88.71,22.36 -133.6,31.14 -18.65,3.66 -37.36,7.04 -56.11,10.17 -71.64,11.96 -143.9,20.19 -216.28,25.31 -44.76,3.17 -94.16,5.41 -148.16,5.41 -74.82,0 -158.5,-4.29 -250.95,-16.3 -3.44,-0.45 -6.89,-0.91 -10.35,-1.37 762.95,245.2 886.31,1047.76 886.31,1047.76 h 0.22 l -0.22,-1119.98"
             style="fill:#34387b;fill-opacity:1;fill-rule:nonzero;stroke:none"
             id="path394"
             inkscape:connector-curvature="0" /></g></g><path
         d="m 4418.19,3200.23 c -57.68,0 -104.44,16.39 -104.17,32.29 l -0.27,-1374.7 c 0,-19.7 46.75,-35.66 104.44,-35.66 57.69,0 104.45,15.96 104.45,35.66 l -0.02,1374.34 c -5.08,-18.14 -46.75,-31.93 -104.43,-31.93"
         style="fill:#5d66d3;fill-opacity:1;fill-rule:nonzero;stroke:none"
         id="path396"
         inkscape:connector-curvature="0" /><g
         id="g398"><g
           id="g400"
           clip-path="url(#clipPath404)"><path
             d="m 4407.93,3200.41 c -8.81,0.3 -17.31,0.97 -25.34,1.96 -0.01,0 -0.02,0 -0.03,0.01 -0.07,0 -0.14,0.01 -0.21,0.02 -0.04,0.01 -0.07,0.01 -0.11,0.02 -0.07,0 -0.14,0.01 -0.21,0.02 -0.02,0 -0.04,0.01 -0.06,0.01 -0.08,0.01 -0.16,0.02 -0.24,0.03 -37.62,4.76 -64.95,16.38 -67.52,28.11 -0.03,0.16 -0.06,0.33 -0.08,0.49 l -0.01,0.02 c -0.05,0.32 -0.08,0.64 -0.1,0.96 v 0.46 0 0 0 0 0 l -0.43,-0.18 0.43,0.18 c -0.98,0.24 -1.97,0.49 -2.96,0.73 -15.16,6.75 -82.49,20.52 -111.03,26.52 28.54,-6 95.87,-19.76 111.04,-26.51 0.98,-0.25 1.96,-0.49 2.95,-0.74 v 0 l 0.11,-1.42 v -0.01 l 0.12,-0.53 c 3.18,-14.3 43.14,-28.44 93.68,-30.15 m -93.91,30.8 -0.83,0.92 0.83,-0.77 v -0.15"
             style="fill:#d4d3d3;fill-opacity:1;fill-rule:nonzero;stroke:none"
             id="path406"
             inkscape:connector-curvature="0" /><path
             d="m 3271.02,3232.26 c 1.61,7.87 4.4,15.57 9.2,23.34 -4.8,-7.77 -7.59,-15.47 -9.2,-23.34"
             style="fill:#292842;fill-opacity:1;fill-rule:nonzero;stroke:none"
             id="path408"
             inkscape:connector-curvature="0" /><path
             d="m 4193.95,3261.06 c -1.65,0.36 -3.32,0.73 -4.97,1.09 1.66,-0.36 3.31,-0.72 4.97,-1.09"
             style="fill:#d4d3d3;fill-opacity:1;fill-rule:nonzero;stroke:none"
             id="path410"
             inkscape:connector-curvature="0" /><path
             d="m 3284.4,3261.7 c 4.78,6.32 10.26,11.5 16.34,15.85 v 0 c -6.08,-4.35 -11.56,-9.53 -16.34,-15.85"
             style="fill:#292842;fill-opacity:1;fill-rule:nonzero;stroke:none"
             id="path412"
             inkscape:connector-curvature="0" /><path
             d="m 4188.05,3262.37 c -65.53,16.5 -131.97,28.72 -198.9,37.61 66.93,-8.89 133.38,-21.1 198.9,-37.61 m -887.31,15.18 v 0 c 3.38,2.41 6.93,4.58 10.66,6.53 v 0.01 -0.01 c -3.72,-1.95 -7.28,-4.12 -10.66,-6.53 m 10.68,6.55 0.07,0.03 c 5.88,3.09 12.19,5.68 18.85,7.96 13.34,4.58 26.91,8.53 40.69,11.95 -13.77,-3.42 -27.35,-7.37 -40.68,-11.95 -6.67,-2.28 -12.98,-4.88 -18.86,-7.97 l -0.07,-0.02 m 674.47,16.39 c -137.73,21.4 -255.48,28.99 -350.99,28.99 v 0 c 95.51,0 213.26,-7.59 350.99,-28.99"
             style="fill:#d4d3d3;fill-opacity:1;fill-rule:nonzero;stroke:none"
             id="path414"
             inkscape:connector-curvature="0" /><path
             d="m 3268.81,3178.1 v 22.83 c 0,11.09 0.16,21.35 2.21,31.33 1.61,7.87 4.4,15.57 9.2,23.34 v 0 c 1.33,2.14 2.72,4.18 4.18,6.1 4.78,6.32 10.26,11.5 16.34,15.85 3.38,2.41 6.94,4.58 10.66,6.53 v 0.01 0 l 0.02,0.01 0.07,0.02 c 5.88,3.09 12.19,5.69 18.86,7.97 13.33,4.58 26.91,8.53 40.68,11.95 23.83,5.91 48.26,10.21 73.05,13.26 47.39,6.93 111.41,12.18 190.82,12.18 95.51,0 213.26,-7.59 350.99,-28.99 1.09,-0.17 2.18,-0.34 3.26,-0.51 v 0 c 66.93,-8.89 133.37,-21.11 198.9,-37.61 v 0 l 0.93,-0.22 v 0 c 1.65,-0.36 3.32,-0.73 4.97,-1.09 v 0 c 1.75,-0.38 3.79,-0.81 6.08,-1.29 28.54,-6 95.87,-19.77 111.03,-26.52 0.99,-0.24 1.98,-0.49 2.96,-0.73 l -0.43,-0.18 -0.44,-0.18 0.04,-0.03 0.83,-0.92 -0.01,-21.52 c -0.98,0.24 -1.96,0.49 -2.94,0.73 -16.39,7.3 -93.63,22.76 -117.12,27.8 -1.66,0.37 -3.31,0.73 -4.97,1.1 l -0.93,0.22 c -65.52,16.5 -131.97,28.72 -198.9,37.6 -139.16,21.79 -258,29.51 -354.28,29.51 -79.37,0 -143.41,-5.25 -190.79,-12.18 -39.12,-4.82 -77.34,-12.72 -113.74,-25.21 -6.66,-2.29 -12.97,-4.87 -18.85,-7.97 l -0.09,-0.03 v -0.01 c -12.49,-6.56 -23.09,-15.4 -31.18,-28.49 -10.88,-17.59 -11.41,-34.81 -11.41,-54.66 m 1045.4,52.49 c -0.03,0.17 -0.06,0.34 -0.09,0.51 l 0.01,-0.02 c 0.02,-0.16 0.05,-0.33 0.08,-0.49"
             style="fill:#323672;fill-opacity:1;fill-rule:nonzero;stroke:none"
             id="path416"
             inkscape:connector-curvature="0" /><path
             d="m 5554.01,3258 c -5.48,8.18 -11.99,14.61 -19.39,19.84 v 0 c 7.39,-5.22 13.91,-11.66 19.39,-19.84"
             style="fill:#cbcbcb;fill-opacity:1;fill-rule:nonzero;stroke:none"
             id="path418"
             inkscape:connector-curvature="0" /><path
             d="m 4423.7,3200.28 c 0.4,0 0.8,0.01 1.2,0.02 v 0 c -0.4,-0.01 -0.8,-0.02 -1.2,-0.02"
             style="fill:#bab4a7;fill-opacity:1;fill-rule:nonzero;stroke:none"
             id="path420"
             inkscape:connector-curvature="0" /><path
             d="m 4424.9,3200.3 v 0 c 49.32,0.93 85.76,12.14 95.58,27.28 0.59,1.15 0.98,2.32 1.16,3.51 l 0.97,1.07 -0.85,0.36 v 0 l 0.86,-0.36 -0.98,-1.08 c -0.17,-1.17 -0.54,-2.33 -1.11,-3.47 -9.79,-15.16 -46.27,-26.38 -95.63,-27.31 m 96.86,32.22 c 0.99,0.25 1.96,0.49 2.95,0.74 16.38,7.29 93.62,22.76 117.11,27.8 1.37,0.3 2.74,0.6 4.11,0.9 -1.37,-0.3 -2.74,-0.61 -4.11,-0.9 -23.49,-5.04 -100.73,-20.51 -117.12,-27.81 -0.98,-0.24 -1.96,-0.49 -2.94,-0.73 m 125.96,29.85 c 65.52,16.51 131.98,28.72 198.9,37.61 139.14,21.79 257.99,29.5 354.25,29.5 v 0 c -96.26,0 -215.12,-7.71 -354.24,-29.5 -66.93,-8.89 -133.39,-21.11 -198.91,-37.61 m 886.9,15.47 c -3.25,2.3 -6.68,4.36 -10.26,6.24 l 0.02,0.01 v -0.01 c 3.57,-1.88 6.99,-3.94 10.24,-6.24 v 0 m -10.24,6.25 -0.1,0.03 c -5.88,3.09 -12.19,5.69 -18.85,7.97 6.67,-2.28 12.97,-4.87 18.85,-7.96 l 0.1,-0.04 m -19.8,8.29 c -24.95,8.51 -50.75,14.86 -77.1,19.56 26.35,-4.7 52.15,-11.05 77.1,-19.56"
             style="fill:#d4d3d3;fill-opacity:1;fill-rule:nonzero;stroke:none"
             id="path422"
             inkscape:connector-curvature="0" /><path
             d="m 5566.96,3182.16 c -0.11,18.16 -1.28,34.22 -11.4,50.6 -8.1,13.09 -18.69,21.93 -31.18,28.49 v 0.01 l -0.1,0.03 c -5.88,3.1 -12.18,5.68 -18.85,7.97 -36.4,12.49 -74.61,20.39 -113.74,25.21 -47.39,6.93 -111.4,12.18 -190.79,12.18 -96.27,0 -215.14,-7.72 -354.28,-29.51 -66.92,-8.88 -133.38,-21.1 -198.9,-37.6 l -0.93,-0.22 c -1.65,-0.37 -3.31,-0.73 -4.97,-1.1 -23.49,-5.04 -100.73,-20.5 -117.11,-27.8 -0.7,-0.17 -1.4,-0.35 -2.09,-0.52 v 22.26 c -0.44,-1.55 -1.14,-3.07 -2.09,-4.55 0.57,1.14 0.94,2.3 1.11,3.47 l 0.98,1.08 -0.86,0.36 v 0 c 0.98,0.24 1.96,0.49 2.94,0.73 16.39,7.3 93.63,22.77 117.12,27.81 1.37,0.29 2.74,0.6 4.11,0.9 0.28,0.06 0.57,0.13 0.86,0.19 l 0.93,0.22 v 0 c 65.52,16.5 131.98,28.72 198.91,37.61 139.12,21.79 257.98,29.5 354.24,29.5 79.39,0 143.43,-5.25 190.82,-12.18 12.02,-1.48 23.96,-3.25 35.79,-5.36 26.35,-4.7 52.15,-11.05 77.1,-19.56 0.28,-0.09 0.57,-0.19 0.85,-0.29 v 0 c 6.66,-2.28 12.97,-4.88 18.85,-7.97 l 0.1,-0.03 -0.02,-0.01 c 3.58,-1.88 7.01,-3.94 10.26,-6.24 7.4,-5.23 13.91,-11.66 19.39,-19.84 0.52,-0.79 1.04,-1.59 1.55,-2.4 10.12,-16.39 11.29,-32.45 11.4,-50.61 v -22.83"
             style="fill:#323672;fill-opacity:1;fill-rule:nonzero;stroke:none"
             id="path424"
             inkscape:connector-curvature="0" /><path
             d="m 4418.19,3200.23 c 0.19,0 0.38,0 0.57,0 -0.19,0 -0.38,0 -0.57,0 m -0.33,0 c -0.04,0 -0.09,0 -0.13,0 0.04,0 0.09,0 0.13,0 m 0.97,0 c 0.18,0.01 0.36,0.01 0.55,0.01 -0.19,0 -0.37,0 -0.55,-0.01 m -1.31,0.01 c -0.04,0 -0.09,0 -0.13,0 0.04,0 0.09,0 0.13,0 m -0.32,0 c -0.06,0 -0.11,0 -0.17,0 0.06,0 0.11,0 0.17,0 m 2.25,0 c 0.18,0 0.37,0 0.55,0 -0.18,0 -0.37,0 -0.55,0 m -2.58,0 c -0.07,0 -0.13,0 -0.2,0 0.07,0 0.13,0 0.2,0 m -0.32,0 c -0.06,0 -0.13,0 -0.19,0 0.07,0 0.13,0 0.19,0 m 3.52,0 c 0.19,0 0.37,0 0.55,0 -0.18,0 -0.36,0 -0.55,0 m -3.86,0 c -0.06,0 -0.11,0 -0.17,0 0.06,0 0.12,0 0.17,0 m 4.48,0 c 0.6,0.01 1.19,0.01 1.79,0.02 -0.6,-0.01 -1.19,-0.01 -1.79,-0.02 m -4.81,0 c -0.05,0 -0.1,0 -0.15,0 0.05,0 0.1,0 0.15,0 m -0.33,0.01 c -0.06,0 -0.13,0 -0.19,0 0.07,0 0.13,0 0.19,0 m -0.32,0 c -0.06,0 -0.12,0 -0.17,0 0.06,0 0.11,0 0.17,0 m -0.33,0 c -0.07,0 -0.13,0 -0.2,0 0.07,0 0.13,0 0.2,0 m -0.32,0.01 c -0.06,0 -0.12,0 -0.18,0 0.06,0 0.12,0 0.18,0 m -0.33,0 c -0.07,0 -0.14,0 -0.21,0 0.07,0 0.14,0 0.21,0 m 8.24,0 c 0.08,0 0.16,0 0.24,0 v 0 c -0.08,0 -0.16,0 -0.24,0"
             style="fill:#d4d3d3;fill-opacity:1;fill-rule:nonzero;stroke:none"
             id="path426"
             inkscape:connector-curvature="0" /><path
             d="m 4422.73,3200.26 v 0 c 0.11,0 0.22,0.01 0.33,0.01 -0.11,0 -0.22,-0.01 -0.33,-0.01"
             style="fill:#bab4a7;fill-opacity:1;fill-rule:nonzero;stroke:none"
             id="path428"
             inkscape:connector-curvature="0" /><path
             d="m 4413.94,3200.26 c -0.07,0.01 -0.14,0.01 -0.2,0.01 0.06,0 0.13,0 0.2,-0.01"
             style="fill:#d4d3d3;fill-opacity:1;fill-rule:nonzero;stroke:none"
             id="path430"
             inkscape:connector-curvature="0" /><path
             d="m 4423.11,3200.27 c 0.2,0 0.39,0 0.59,0.01 -0.2,-0.01 -0.39,-0.01 -0.59,-0.01"
             style="fill:#bab4a7;fill-opacity:1;fill-rule:nonzero;stroke:none"
             id="path432"
             inkscape:connector-curvature="0" /><path
             d="m 4413.59,3200.27 c -0.06,0 -0.12,0 -0.19,0 0.07,0 0.13,0 0.19,0 m -0.33,0 c -0.06,0.01 -0.11,0.01 -0.16,0.01 0.05,0 0.11,0 0.16,-0.01 m -0.33,0.01 c -0.06,0 -0.12,0 -0.18,0 0.06,0 0.12,0 0.18,0 m -0.3,0.01 c -0.01,0 -0.03,0 -0.04,0 v 0 c 0.02,0 0.03,0 0.04,0"
             style="fill:#d4d3d3;fill-opacity:1;fill-rule:nonzero;stroke:none"
             id="path434"
             inkscape:connector-curvature="0" /><path
             d="m 4412.59,3200.29 c -0.05,0 -0.11,0 -0.17,0 0.06,0 0.12,0 0.17,0 v 0 m -0.26,0 c -0.09,0 -0.17,0 -0.25,0.01 0.08,-0.01 0.16,-0.01 0.25,-0.01 m -0.26,0.01 c -0.1,0 -0.19,0 -0.3,0 0.1,0 0.2,0 0.3,0 m -0.39,0 c -0.19,0.01 -0.37,0.01 -0.56,0.02 0.18,-0.01 0.37,-0.01 0.56,-0.02 m -0.56,0.02 c -0.25,0 -0.5,0.01 -0.75,0.02 v 0 c 0.25,-0.01 0.5,-0.02 0.75,-0.02"
             style="fill:#bab4a7;fill-opacity:1;fill-rule:nonzero;stroke:none"
             id="path436"
             inkscape:connector-curvature="0" /><path
             d="m 4410.37,3200.34 c -0.17,0 -0.35,0 -0.52,0.01 0.17,-0.01 0.35,-0.01 0.52,-0.01 v 0 m -0.52,0.01 c -0.1,0 -0.2,0 -0.3,0.01 0.1,-0.01 0.2,-0.01 0.3,-0.01 m -0.32,0.01 c -0.08,0 -0.16,0 -0.24,0 0.08,0 0.16,0 0.24,0 m -0.33,0.01 c -0.31,0.01 -0.62,0.02 -0.93,0.03 0.31,-0.01 0.62,-0.02 0.93,-0.03 m -0.94,0.03 c -0.09,0 -0.19,0 -0.28,0.01 0.09,-0.01 0.19,-0.01 0.28,-0.01"
             style="fill:#d4d3d3;fill-opacity:1;fill-rule:nonzero;stroke:none"
             id="path438"
             inkscape:connector-curvature="0" /><path
             d="m 4418.19,3177.4 v 0 c -9.05,0 -17.82,0.41 -26.19,1.15 v 22.83 c -3.2,0.28 -6.34,0.61 -9.41,0.99 8.03,-0.99 16.53,-1.66 25.34,-1.96 0.02,0 0.03,0 0.05,0 0.09,-0.01 0.19,-0.01 0.28,-0.01 0,0 0,0 0.01,0 0.31,-0.01 0.62,-0.02 0.93,-0.03 0.03,0 0.06,0 0.09,-0.01 0.08,0 0.16,0 0.24,0 0,0 0.01,0 0.02,0 0.1,-0.01 0.2,-0.01 0.3,-0.01 v 0 c 0.17,-0.01 0.35,-0.01 0.52,-0.01 0.25,-0.01 0.5,-0.02 0.75,-0.02 v 0 c 0.19,-0.01 0.37,-0.01 0.56,-0.02 0.03,0 0.06,0 0.09,0 0.11,0 0.2,0 0.3,0 0,0 0,0 0.01,0 0.08,-0.01 0.16,-0.01 0.25,-0.01 0.03,0 0.06,0 0.09,0 0.06,0 0.12,0 0.17,0 0.01,0 0.03,0 0.04,0 0.04,-0.01 0.08,-0.01 0.12,-0.01 0.06,0 0.12,0 0.18,0 0.05,0 0.11,0 0.17,0 0.05,0 0.1,0 0.16,-0.01 0.05,0 0.09,0 0.14,0 0.07,0 0.13,0 0.19,0 0.05,0 0.1,0 0.15,0 0.06,0 0.13,0 0.2,-0.01 0.03,0 0.07,0 0.1,0 0.07,0 0.14,0 0.21,0 0.05,0 0.1,0 0.15,0 0.06,0 0.12,0 0.18,0 0.04,0 0.08,-0.01 0.12,-0.01 0.07,0 0.13,0 0.2,0 0.05,0 0.1,0 0.16,0 0.05,0 0.11,0 0.17,0 0.05,0 0.09,0 0.13,0 0.06,0 0.13,0 0.19,0 0.06,0 0.12,-0.01 0.18,-0.01 0.05,0 0.1,0 0.15,0 0.06,0 0.11,0 0.16,0 0.06,0 0.11,0 0.17,0 0.05,0 0.1,0 0.15,0 0.06,0 0.13,0 0.19,0 0.04,0 0.08,0 0.12,0 0.07,0 0.13,0 0.2,0 0.05,0 0.11,0 0.16,0 0.06,0 0.11,0 0.17,0 0.06,0 0.13,0 0.19,0 0.04,0 0.09,0 0.13,0 0.07,-0.01 0.14,-0.01 0.21,-0.01 0.04,0 0.09,0 0.13,0 0.11,0 0.22,0 0.33,0 v 0 c 0.19,0 0.38,0 0.57,0 0.02,0 0.05,0 0.07,0 0.18,0.01 0.36,0.01 0.55,0.01 0.02,0 0.05,0 0.07,0 0.18,0 0.37,0 0.55,0 0.03,0 0.05,0 0.07,0 0.19,0 0.37,0 0.55,0 0.02,0 0.05,0 0.07,0 0.6,0.01 1.19,0.01 1.79,0.02 0,0 0,0 0.01,0 0.08,0 0.16,0 0.24,0 0.11,0 0.22,0.01 0.33,0.01 0.02,0 0.04,0 0.05,0 0.2,0 0.39,0 0.59,0.01 v 0 c 0.4,0 0.8,0.01 1.2,0.02 49.36,0.93 85.84,12.15 95.63,27.31 0.95,1.48 1.65,3 2.09,4.55 v -22.26 c -0.29,-0.07 -0.58,-0.14 -0.86,-0.21 l 0.85,-0.36 -0.97,-1.07 c -0.18,-1.19 -0.57,-2.36 -1.16,-3.51 -10.26,-15.83 -49.58,-27.35 -102.29,-27.35 m -35.63,24.98 c -0.07,0 -0.14,0.01 -0.21,0.02 0.07,-0.01 0.14,-0.02 0.21,-0.02 m -0.32,0.04 c -0.07,0 -0.14,0.01 -0.21,0.02 0.07,-0.01 0.14,-0.02 0.21,-0.02 m -0.27,0.03 c -0.08,0.01 -0.16,0.02 -0.24,0.03 0.08,-0.01 0.16,-0.02 0.24,-0.03 m -67.96,7.24 v 0 l 0.01,21.52 v 0.15 l -0.01,-21.67"
             style="fill:#5259b0;fill-opacity:1;fill-rule:nonzero;stroke:none"
             id="path440"
             inkscape:connector-curvature="0" /></g></g><g
         id="g442"><g
           id="g444"
           clip-path="url(#clipPath448)"><path
             d="m 4314.02,3232.05 c 0,0.07 0,0.13 0,0.2 v 0.01 c 0,-0.07 0,-0.14 0,-0.2 v -0.01"
             style="fill:#e9e9e9;fill-opacity:1;fill-rule:nonzero;stroke:none"
             id="path450"
             inkscape:connector-curvature="0" /><path
             d="m 4392,1823.29 c -45,3.98 -78.25,17.93 -78.25,34.54 l 0.26,1351.86 c 0.01,0 0.01,0 0.01,0 l 0.11,-1.41 v -0.02 l 0.12,-0.54 c 2.84,-12.75 34.96,-25.38 77.75,-29.17 V 1823.29 m -77.98,1408.07 v 0 0.89 c 0,-0.07 0,-0.13 0,-0.2 v -0.69"
             style="fill:#575fc1;fill-opacity:1;fill-rule:nonzero;stroke:none"
             id="path452"
             inkscape:connector-curvature="0" /><path
             d="m 4382.59,3202.37 c -0.01,0 -0.02,0 -0.03,0.01 0.01,-0.01 0.02,-0.01 0.03,-0.01 m -0.24,0.03 c -0.04,0.01 -0.07,0.01 -0.11,0.02 0.04,-0.01 0.07,-0.01 0.11,-0.02 m -0.32,0.04 c -0.02,0 -0.04,0.01 -0.06,0.01 0.02,0 0.04,-0.01 0.06,-0.01 m -0.3,0.04 c -37.57,4.75 -64.88,16.35 -67.51,28.06 0,0.01 0,0.03 -0.01,0.05 2.57,-11.73 29.9,-23.35 67.52,-28.11 m -67.61,28.62 v 0 c -0.05,0.32 -0.08,0.63 -0.1,0.95 v 0.01 c 0.02,-0.32 0.05,-0.64 0.1,-0.96"
             style="fill:#c2c1c1;fill-opacity:1;fill-rule:nonzero;stroke:none"
             id="path454"
             inkscape:connector-curvature="0" /><path
             d="m 4314.22,3230.54 c -0.04,0.19 -0.07,0.37 -0.1,0.56 v 0 c 0.03,-0.17 0.06,-0.34 0.09,-0.51 0.01,-0.02 0.01,-0.04 0.01,-0.05"
             style="fill:#31346a;fill-opacity:1;fill-rule:nonzero;stroke:none"
             id="path456"
             inkscape:connector-curvature="0" /><path
             d="m 4392,3178.55 c -42.79,3.79 -74.91,16.42 -77.75,29.17 l -0.12,0.54 v 0.02 l -0.11,1.41 c 0,0 0,0 -0.01,0 l 0.01,21.67 v 0 0.69 c 0.02,-0.32 0.05,-0.63 0.1,-0.95 0.03,-0.19 0.06,-0.37 0.1,-0.56 2.63,-11.71 29.94,-23.31 67.51,-28.06 0.08,-0.01 0.16,-0.02 0.24,-0.03 0.02,0 0.04,-0.01 0.06,-0.01 0.07,-0.01 0.14,-0.02 0.21,-0.02 0.04,-0.01 0.07,-0.01 0.11,-0.02 0.07,-0.01 0.14,-0.02 0.21,-0.02 0.01,-0.01 0.02,-0.01 0.03,-0.01 3.07,-0.38 6.21,-0.71 9.41,-0.99 v -22.83"
             style="fill:#4e54a2;fill-opacity:1;fill-rule:nonzero;stroke:none"
             id="path458"
             inkscape:connector-curvature="0" /><path
             d="m 4314.02,3232.26 v 0 0.26 -0.26 m 0,0.02 v 0.01 -0.01 m 0,0.08 c 0,0 0,0.01 0,0.02 0,-0.01 0,-0.01 0,-0.02 m 0,0.08 c 0,0.02 0,0.05 0,0.08 v 0 c 0,-0.03 0,-0.06 0,-0.08"
             style="fill:#e9e9e9;fill-opacity:1;fill-rule:nonzero;stroke:none"
             id="path460"
             inkscape:connector-curvature="0" /><path
             d="m 4314.02,3232.26 c 0,0.01 0,0.01 0,0.02 v 0.01 c 0,0.02 0,0.04 0,0.07 0,0.01 0,0.01 0,0.02 0,0.02 0,0.04 0,0.06 0,0.02 0,0.05 0,0.08 v 0 -0.26"
             style="fill:#575fc1;fill-opacity:1;fill-rule:nonzero;stroke:none"
             id="path462"
             inkscape:connector-curvature="0" /><path
             d="m 4314.02,3232.52 v 0 0 0 m 0,0 v 0 0 0"
             style="fill:#c2c1c1;fill-opacity:1;fill-rule:nonzero;stroke:none"
             id="path464"
             inkscape:connector-curvature="0" /><path
             d="m 4314.02,3232.52 v 0 0 0"
             style="fill:#4e54a2;fill-opacity:1;fill-rule:nonzero;stroke:none"
             id="path466"
             inkscape:connector-curvature="0" /></g></g><path
         d="m 5378.97,3165.67 c -100.98,14.77 -280.47,21.61 -525.02,-16.7 -46.5,-6.16 -127.5,-22.7 -169.57,-31.56 -15.8,-3.32 -27.09,-17.25 -27.09,-33.39 v -277.64 c 0,-21.83 20.18,-37.96 41.49,-33.31 99.34,21.65 206.13,51.89 329.18,59.37 105.28,6.42 209.59,9.52 367.59,-11.88 20.48,-2.78 38.72,13.12 38.72,33.79 v 273.81 c 0,16.67 -12.05,30.94 -28.5,33.66 -8.87,1.47 -17.81,2.74 -26.8,3.85"
         style="fill:#5d66d3;fill-opacity:1;fill-rule:nonzero;stroke:none"
         id="path468"
         inkscape:connector-curvature="0" /><path
         d="m 3462.92,2605.96 c 0.95,3.89 1.88,7.93 1.69,11.79 -1.85,36.07 -24.41,53.76 -36.03,87.83 -5.18,15.19 20.4,47.59 -12.14,55.78 -33.71,8.43 -98.93,2.73 -121.73,33.59 -10.08,13.64 -22.51,31.56 -38.98,27.48 -5.63,-1.39 -10.26,-5.32 -14.44,-9.35 -137.97,-133.45 -3.84,-294.18 146.53,-289.15 12.77,0.43 21.39,0.67 31.78,6.63 16.9,9.66 24.24,27.09 32.14,44.1 4.68,10.08 8.57,20.56 11.18,31.3"
         style="fill:#b97262;fill-opacity:1;fill-rule:nonzero;stroke:none"
         id="path470"
         inkscape:connector-curvature="0" /><path
         d="m 3198.53,2581.92 c -34.16,-14.29 -76.12,0.17 -99.54,28.86 -23.41,28.69 -29.94,68.58 -23.89,105.11 6.05,36.54 23.47,70.25 43.72,101.27 24,36.75 54.2,72.08 95.21,87.7 22.85,8.71 47.67,10.73 72.14,11.26 16.51,0.36 34.78,-0.6 46.67,-12.08 8.51,-8.22 11.96,-20.26 14.49,-31.82 16.5,-75.12 3.53,-86.04 -45.67,-135.98 -43.63,-44.28 -75.59,-99.01 -103.13,-154.32"
         style="fill:#ffffff;fill-opacity:1;fill-rule:nonzero;stroke:none"
         id="path472"
         inkscape:connector-curvature="0" /><path
         d="m 6841.88,5342.75 c -2.85,1.85 -5.77,3.77 -7.86,6.14 -19.39,21.95 -14.68,42.7 -26.51,67.99 -5.28,11.29 -40.61,18.46 -23.92,38.24 6.16,7.29 24.31,23.22 37.62,38.66 24.24,28.09 1.62,68.91 26.88,100.45 21.71,27.12 99.96,52.15 127.4,12.31 10.27,-14.96 -4.01,-39.07 -1.81,-55.31 3.37,-24.93 23.47,-41.55 32.56,-64.71 8.07,-20.56 12.63,-49.07 11.4,-70.34 -2.43,-41.96 -44.87,-64.18 -79.53,-86.81 -8.64,-5.64 -14.45,-9.47 -24.68,-10.78 -16.62,-2.13 -31.39,4.68 -46.31,11 -8.83,3.74 -17.38,8.09 -25.24,13.16"
         style="fill:#efbfa5;fill-opacity:1;fill-rule:nonzero;stroke:none"
         id="path474"
         inkscape:connector-curvature="0" /><path
         d="m 7065.86,5462.41 c 32.65,15.8 49.24,55.98 43.37,91.76 -5.89,35.79 -30.92,66.45 -61.65,85.68 -30.75,19.25 -66.79,28.33 -102.68,33.58 -42.53,6.22 -88.03,6.96 -126.08,-13 -21.22,-11.13 -38.79,-28.05 -55.04,-45.64 -10.97,-11.89 -22.11,-25.93 -21.41,-42.09 0.52,-11.57 7.13,-21.91 13.97,-31.27 44.42,-60.81 60.86,-58.38 129.4,-54.65 60.79,3.32 121.68,-8.72 180.12,-24.37"
         style="fill:#8cabef;fill-opacity:1;fill-rule:nonzero;stroke:none"
         id="path476"
         inkscape:connector-curvature="0" /><path
         d="m 5339.87,5403.6 c 3.12,1.35 6.31,2.77 8.75,4.75 22.74,18.49 21.5,39.73 37.33,62.73 7.07,10.27 43.08,11.55 29.87,33.78 -4.88,8.21 -20.18,26.91 -30.77,44.32 -19.3,31.69 9.72,68.23 -10.02,103.51 -16.97,30.31 -90.05,67.85 -123.65,33.03 -12.6,-13.04 -2.47,-39.18 -7.31,-54.83 -7.41,-24.05 -29.96,-37.16 -42.73,-58.51 -11.34,-18.95 -20.51,-46.33 -22.79,-67.51 -4.5,-41.77 33.73,-70.66 64.2,-98.68 7.6,-6.98 12.7,-11.71 22.57,-14.69 16.07,-4.82 31.75,-0.52 47.5,3.26 9.33,2.23 18.48,5.11 27.05,8.84"
         style="fill:#efbfa5;fill-opacity:1;fill-rule:nonzero;stroke:none"
         id="path478"
         inkscape:connector-curvature="0" /><path
         d="m 5138.57,5558.4 c -29.61,20.94 -39.39,63.28 -27.71,97.62 11.66,34.34 41.4,60.46 74.87,74.41 33.48,13.94 70.52,16.98 106.79,16.27 42.96,-0.84 87.99,-7.59 122.25,-33.52 19.09,-14.46 33.66,-34.03 46.78,-54.06 8.88,-13.52 17.57,-29.2 14.21,-45.02 -2.4,-11.34 -10.61,-20.46 -18.89,-28.56 -53.81,-52.69 -69.61,-47.6 -136.63,-32.67 -59.41,13.23 -121.46,11.37 -181.67,5.53"
         style="fill:#8cabef;fill-opacity:1;fill-rule:nonzero;stroke:none"
         id="path480"
         inkscape:connector-curvature="0" /></g></g></svg>